<?xml version="1.0" encoding="utf-8"?>
<!-- Generator: Adobe Illustrator 22.1.0, SVG Export Plug-In . SVG Version: 6.00 Build 0)  -->
<svg version="1.1" xmlns="http://www.w3.org/2000/svg" xmlns:xlink="http://www.w3.org/1999/xlink" x="0px" y="0px"
	 viewBox="0 0 52 24" style="enable-background:new 0 0 52 24;" xml:space="preserve">
<style type="text/css">
	.st0{display:none;}
	.st1{display:inline;}
	.st2{fill:#808080;}
	.st3{display:inline;fill:#808080;}
</style>
<g id="MOTO" class="st0">
	<g id="step3_x5F_moto" class="st1">
		<path class="st2" d="M24.2,17v0.3h-0.3l-3.4-2.8H21v-1h-2.4v1h0.6L16,17.4h-0.4V17h-0.8v1.5h0.8v-0.3H16l2.9,2.2h-1v0.8H20l0,0
			l0,0h2v-0.8H21l2.8-2.2h0.3v0.3H25V17H24.2z M20,20.1l-2.6-2h5.2L20,20.1z M17.2,17.4l2.6-2.2l2.8,2.2H17.2z"/>
		<g>
			<path class="st2" d="M28.2,9.8c0,0.1,0,0.2,0,0.3C28.3,10,28.3,9.9,28.2,9.8L28.2,9.8z"/>
			<path class="st2" d="M27.8,13.6c-0.2,0.5-0.7,0.9-1.3,0.9c-0.7,0-1.3-0.5-1.4-1.2l1.1,0.5l0.5-1.2l-1.2-0.5
				c0.3-0.3,0.6-0.4,1-0.4c0.2,0,0.3,0,0.5,0.1c-0.2-0.4-0.3-0.9-0.3-1.3c0,0-0.1,0-0.1,0c-0.9,0-1.7,0.5-2.2,1.2l-0.7-0.3v-0.4
				l2.2-0.9l0.6-1.3h0.2c0-0.6,0.1-1.1,0.3-1.7l-3.2,0h0c-0.1,0-0.2,0-0.2,0.1c0,0-0.7,0.7-2,0.9c-0.1-0.2-0.2-0.4-0.4-0.6
				c-0.5-0.5-1.2-0.8-1.9-0.8c-0.2,0-0.3,0-0.5,0c0,0,0,0,0,0c0,0-0.9,0.1-2.1,0.5c0,0,0,0-0.1,0c-0.1,0-0.5,0-0.6-0.3
				c0,0,0,0,0-0.1l0.6-0.1c0.2,0,0.3-0.2,0.2-0.3c0-0.2-0.2-0.3-0.3-0.2l-0.5,0.1c0.1-0.3,0.2-0.7,0.6-1.3c0.1-0.1,0.1-0.3,0-0.4
				c-0.1-0.1-0.1-0.1-0.2-0.1c0,0-0.1,0-0.1,0c0,0-0.9,0.3-1.6,1.1c-0.5,0.5-1,1.3-1.2,2.3c0-0.1,0.1-0.2,0.2-0.2
				c0,0,0.9,0.6,0.4,1.4H13c0,0.2,0,0.3,0.1,0.5c0,0.1,0,0.1,0.1,0.2l0.7,0.6c-2.3-0.3-3.1,1.2-3.1,1.2c-0.2,0.2-0.1,0.5,0.2,0.3
				c-0.2,0.4-0.3,0.8-0.3,1.2c0,1.5,1.2,2.7,2.7,2.7c1.5,0,2.7-1.2,2.7-2.7c0-0.1,0-0.2,0-0.3h3.3l-1.3-1c0,0-1.5,0.1-2.6-1
				c0.1,0,0.2,0,0.4,0c0.9,0,2.1,0.2,3,0.9c0,0,0,0,0,0l2.9,1.9c0.1,0,0.1,0.1,0.2,0.1c0.1,0,0.2,0,0.2-0.1l1.2-1.2l0.7,0.3
				c0,0.1,0,0.2,0,0.3c0,1.5,1.2,2.7,2.7,2.7c0.8,0,1.5-0.4,2-0.9C28.2,14.4,28,14,27.8,13.6z M23.5,9.8l2-0.9l-0.3,0.6l-1.7,0.7
				V9.8z M13.3,14.5c-0.8,0-1.4-0.6-1.4-1.4c0-0.8,0.6-1.4,1.4-1.4c0,0,0.1,0,0.1,0l-0.6,1.2l1.1,0.5l0.5-1.1
				c0.1,0.2,0.2,0.5,0.2,0.8C14.7,13.9,14,14.5,13.3,14.5z"/>
		</g>
		<g>
			<path class="st2" d="M36.3,8L36,7.2l1-1.2c-0.5-0.1-1.1,0.1-1.4,0.5c-0.4,0.5-0.5,1.1-0.2,1.6c0,0,0,0,0,0l-1,1.1l0.8,0.9l1-1.2
				c0,0,0,0,0,0c0.6,0.2,1.2,0,1.6-0.5c0.4-0.4,0.5-1,0.3-1.5l-1,1.2L36.3,8z"/>
			<path class="st2" d="M32,12.1c-0.2,0.2-0.2,0.6,0.1,0.8l0.1,0c0.2,0.2,0.6,0.2,0.8-0.1l1.3-1.5l-0.8-0.9L32,12.1z"/>
			<path class="st2" d="M35.1,10.3l-0.8-0.9l-1.1-1.2c0,0,0,0,0,0c0,0,0-0.1,0-0.1c0,0,0-0.1,0-0.1c0.2-0.5,0-1.1-0.3-1.5
				c-0.4-0.4-0.9-0.6-1.4-0.5l1.1,1.1l-0.3,0.8l-0.8,0.2l-1.1-1.1c-0.1,0.5,0,1.1,0.3,1.5C31,9,31.6,9.2,32.1,9.1c0,0,0.1,0,0.1,0
				c0,0,0.1,0,0.1,0c0,0,0,0,0,0l1.2,1.3l0.8,0.9l1.4,1.6C35.9,13,36,13,36.2,13c0.1,0,0.3-0.1,0.4-0.2l0.1-0.1
				c0.2-0.2,0.2-0.6,0-0.8L35.1,10.3z"/>
			<path class="st2" d="M34.3,2.4c-3.8,0-6.8,3.1-6.8,6.8c0,1,0.2,1.9,0.6,2.8c1.7,3.7,5,7.7,6,8.8c0.1,0.1,0.2,0.1,0.3,0.1
				c0.1,0,0.2,0,0.3-0.1c1-1.1,4.2-5.1,6-8.8c0.4-0.9,0.6-1.8,0.6-2.8C41.1,5.5,38.1,2.4,34.3,2.4z M34.3,14.6c-3,0-5.4-2.4-5.4-5.4
				c0-3,2.4-5.4,5.4-5.4s5.4,2.4,5.4,5.4C39.6,12.2,37.2,14.6,34.3,14.6z"/>
		</g>
	</g>
	<g id="step2_x5F_moto" class="st1">
		<g>
			<g>
				<g>
					<path class="st2" d="M33.7,3.3H18.1c-0.9,0-1.7,0.8-1.7,1.7v14.3c0,0.5,0.4,0.9,0.9,0.9c0.5,0,0.9-0.4,0.9-0.9v-10h15.2v10
						c0,0.5,0.4,0.9,0.9,0.9c0.5,0,0.9-0.4,0.9-0.9V5C35.4,4,34.6,3.3,33.7,3.3L33.7,3.3z M18.3,7.1h15.2v0.3H18.3V7.1z M18.3,6.4
						V6.1h15.2v0.3H18.3z M18.3,8.5V8.2h15.2v0.3H18.3z M18.3,8.5"/>
				</g>
			</g>
		</g>
		<path class="st2" d="M30.1,16.8c-0.6,0-1.1,0.3-1.4,0.7l-0.4-0.2v-0.3l1.4-0.6l0.4-0.8h0.2l0.8,1c0,0,0.1,0.1,0.1,0.1
			c0,0,0.1,0,0.1,0c0.1-0.1,0.1-0.2,0-0.2l-0.7-0.8h0.1c0.1,0,0.2-0.1,0.2-0.2c0-0.1-0.1-0.2-0.2-0.2h-0.2l0.2-0.1
			c0.1,0,0.1-0.2,0.1-0.3l-0.1-0.3c0-0.1-0.1-0.1-0.2-0.1l-2.3,0h0c-0.1,0-0.1,0-0.1,0.1c0,0-0.5,0.5-1.3,0.6
			c-0.1-0.1-0.1-0.2-0.3-0.4c-0.3-0.4-0.8-0.5-1.2-0.5c-0.1,0-0.2,0-0.3,0c0,0,0,0,0,0c0,0-0.6,0.1-1.4,0.3c0,0,0,0,0,0
			c-0.1,0-0.3,0-0.4-0.2c0,0,0,0,0,0l0.4-0.1c0.1,0,0.2-0.1,0.2-0.2c0-0.1-0.1-0.2-0.2-0.2L23.1,14c0-0.2,0.2-0.5,0.4-0.8
			c0-0.1,0-0.2,0-0.2c0,0-0.1-0.1-0.2-0.1c0,0,0,0-0.1,0c0,0-0.6,0.2-1,0.7c-0.3,0.3-0.6,0.8-0.7,1.5c0-0.1,0.1-0.1,0.1-0.2
			c0,0,0.6,0.4,0.2,0.9h-0.4c0,0.1,0,0.2,0,0.3c0,0,0,0.1,0.1,0.1l0.5,0.4c-1.5-0.2-2,0.8-2,0.8c-0.1,0.1-0.1,0.3,0.1,0.2
			c-0.1,0.2-0.2,0.5-0.2,0.8c0,1,0.8,1.7,1.7,1.7s1.7-0.8,1.7-1.7c0-0.1,0-0.1,0-0.2h2.1l-0.8-0.6c0,0-1,0.1-1.7-0.7
			c0.1,0,0.2,0,0.2,0c0.6,0,1.4,0.1,1.9,0.6c0,0,0,0,0,0l1.9,1.3c0,0,0.1,0,0.1,0c0.1,0,0.1,0,0.1-0.1l0.8-0.8l0.4,0.2
			c0,0.1,0,0.1,0,0.2c0,1,0.8,1.7,1.7,1.7s1.7-0.8,1.7-1.7S31.1,16.8,30.1,16.8L30.1,16.8z M28.2,16.4l1.3-0.6l-0.2,0.4l-1.1,0.5
			V16.4z M21.6,19.4c-0.5,0-0.9-0.4-0.9-0.9c0-0.5,0.4-0.9,0.9-0.9c0,0,0,0,0.1,0l-0.4,0.8l0.7,0.4l0.3-0.7c0.1,0.1,0.1,0.3,0.1,0.5
			C22.5,19,22.1,19.4,21.6,19.4L21.6,19.4z M30.1,19.4c-0.5,0-0.8-0.3-0.9-0.8l0.7,0.3l0.3-0.7l-0.7-0.3c0.2-0.2,0.4-0.3,0.6-0.3
			c0.5,0,0.9,0.4,0.9,0.9C31,19,30.6,19.4,30.1,19.4L30.1,19.4z M30.1,19.4"/>
	</g>
	<g id="step1_x5F_moto" class="st1">
		<path class="st2" d="M21.2,17L21.2,17c-1.1,2.1-2.8,3.5-4.7,3.5c-0.8,0-1.6-0.3-2.3-0.7c0.5-0.3,1-0.3,1.3-0.3
			c0.2,0,0.3-0.1,0.3-0.3c0-0.2-0.1-0.3-0.3-0.3c0,0,0,0,0,0c-0.4,0-1.1,0-1.8,0.5c-0.8-0.7-1.5-1.6-2.1-2.8
			c0.6,0.2,1.1,0.6,1.3,0.8c0.1,0,0.1,0.1,0.2,0.1c0.1,0,0.2,0,0.2-0.1c0.1-0.1,0.1-0.3,0-0.4c-0.3-0.3-1-0.9-2-1
			c-0.4-1.2-0.7-2.5-0.8-3.9c0.6,0.4,1,1,1.1,1.3c0.1,0.1,0.1,0.1,0.2,0.1c0,0,0.1,0,0.1,0c0.1-0.1,0.2-0.2,0.1-0.4
			c-0.2-0.4-0.7-1.2-1.6-1.6c0-1.1,0.2-2.1,0.4-3.1c0.4,0.3,0.6,0.7,0.7,1c0,0.1,0.1,0.2,0.2,0.2c0,0,0.1,0,0.1,0
			c0.1-0.1,0.2-0.2,0.1-0.4c-0.1-0.3-0.4-0.9-1-1.3c0.4-1.2,0.9-2.2,1.6-3c0.3,0.6,0.3,0.8,0.3,0.8c0,0.2,0.1,0.3,0.3,0.3
			c0,0,0,0,0,0c0.1,0,0.3-0.1,0.3-0.3c0,0,0-0.4-0.4-1.3C14,3.7,15,3.1,16.1,3c-0.4,0.4-0.6,0.4-0.6,0.4c-0.1,0-0.2,0.2-0.2,0.3
			c0,0.1,0.1,0.2,0.3,0.2c0,0,0.1,0,0.1,0c0,0,0.5-0.2,1.2-1c1.8,0.2,3.3,1.5,4.3,3.4L21.5,6c-1.2-2.1-3-3.5-5-3.5
			c-1.4,0-2.7,0.6-3.7,1.7c0,0-0.1,0.1-0.1,0.1c-0.9,0.9-1.6,2.2-2,3.6c0,0,0,0.1,0,0.1c-0.3,1.1-0.5,2.4-0.6,3.7c0,0,0,0,0,0
			c0,0,0,0,0,0c0,5.1,2.9,9.3,6.4,9.3c2,0,3.8-1.4,5-3.5L21.2,17z"/>
		<path class="st2" d="M20.4,14.6c-0.5,1.7-1.5,2.8-2.6,2.8c-1.7,0-3-2.5-3-5.6s1.3-5.6,3-5.6c1,0,1.9,1,2.5,2.4l0.2-1.3l0.3-0.5
			c-0.8-1.6-1.9-2.6-3.2-2.6c-0.2,0-0.4,0-0.5,0.1C16.2,4,15.3,4,14.3,4.4c-0.1,0.1-0.2,0.2-0.1,0.4c0.1,0.1,0.2,0.2,0.4,0.1
			c0.6-0.3,1.2-0.4,1.8-0.3c-0.5,0.3-0.9,0.7-1.3,1.2c-1.3,0.1-2.3,0.8-2.9,2C12,8,12,8.2,12.2,8.3c0,0,0.1,0,0.1,0
			c0.1,0,0.2-0.1,0.2-0.1c0.5-0.9,1.2-1.5,2.1-1.7c-0.4,0.7-0.7,1.6-0.9,2.5c-0.9,0.5-1.5,1.4-1.8,2.6c0,0.1,0.1,0.3,0.2,0.3
			c0,0,0,0,0.1,0c0.1,0,0.2-0.1,0.3-0.2c0.2-0.9,0.5-1.5,1.1-2c-0.1,0.6-0.1,1.3-0.1,2c0,0.2,0,0.4,0,0.6c-0.8,0.8-1.1,2-0.9,3.3
			c0,0.1,0.1,0.2,0.3,0.2c0,0,0,0,0,0c0.1,0,0.2-0.2,0.2-0.3c-0.2-1,0-1.8,0.4-2.4c0.1,1.1,0.4,2,0.7,2.9c-0.4,0.7-0.4,1.5,0,2.4
			c0,0.1,0.1,0.2,0.3,0.2c0,0,0.1,0,0.1,0c0.1-0.1,0.2-0.2,0.1-0.4c-0.2-0.5-0.3-1-0.2-1.4c0.4,0.8,0.9,1.4,1.4,1.8
			c0.1,0.5,0.4,1,0.9,1.5c0.1,0,0.1,0.1,0.2,0.1c0.1,0,0.2,0,0.2-0.1c0.1-0.1,0.1-0.3,0-0.4c-0.2-0.2-0.4-0.4-0.5-0.6
			c0.3,0.1,0.6,0.2,0.9,0.2c1.4,0,2.6-1.2,3.3-3L20.4,14.6z"/>
		<path class="st2" d="M31,16.9c-1.1,2.2-2.8,3.7-4.8,3.7c-3.2,0-5.9-3.9-5.9-8.7S22.9,3,26.2,3c2,0,3.7,1.4,4.8,3.6l0.3-0.6
			c-1.2-2.2-3-3.6-5.1-3.6c-3.6,0-6.4,4.2-6.4,9.3s2.9,9.3,6.4,9.3c2.1,0,3.9-1.4,5.1-3.6L31,16.9z"/>
		<path class="st2" d="M30.3,14.7l0-0.5c-0.5,1.9-1.5,3.1-2.7,3.1c-1.7,0-3-2.5-3-5.6s1.3-5.6,3-5.6c1.2,0,2.2,1.2,2.7,3.1l0.4-1.8
			l0.1-0.2c-0.8-1.8-2-3-3.3-3c-2.3,0-4.2,3.4-4.2,7.5s1.9,7.5,4.2,7.5c1.4,0,2.6-1.2,3.4-3.1L30.3,14.7z"/>
		<path class="st2" d="M36.1,2.5c-3.6,0-6.4,4.2-6.4,9.3c0,2.2,0.5,4.3,1.5,5.9l0,0c0,0,0,0,0.1,0.1c1.2,2,3,3.3,4.9,3.3
			c3.6,0,6.4-4.2,6.4-9.3S39.7,2.5,36.1,2.5z M41.4,15.7c-0.1-0.1-0.2-0.2-0.4-0.4c0.1-0.4,0.2-0.9,0.3-1.3c0.2,0.1,0.3,0.2,0.4,0.3
			C41.7,14.8,41.5,15.3,41.4,15.7z M40.6,17.5c-0.1-0.2-0.2-0.3-0.3-0.5c0.2-0.4,0.4-0.8,0.6-1.3c0.1,0.1,0.2,0.2,0.4,0.4
			C41,16.6,40.8,17.1,40.6,17.5z M37.9,20.1c0.1-0.3,0.2-0.6,0.2-1c0.4-0.1,0.7-0.3,1-0.6c0,0.3,0,0.6-0.1,0.9
			C38.6,19.7,38.3,19.9,37.9,20.1z M33.2,19.4c0.1,0,0.2,0,0.2,0.1c0.3,0.2,0.5,0.5,0.8,0.6c0,0,0,0,0,0
			C33.9,19.9,33.6,19.7,33.2,19.4z M38.6,4.6c-0.2-0.1-0.5-0.2-0.7-0.3c-0.1-0.4-0.3-0.8-0.5-1.1c0,0,0,0,0,0
			c0.4,0.1,0.9,0.3,1.3,0.6C38.6,4.1,38.6,4.4,38.6,4.6z M40.7,6.3c-0.1,0.1-0.3,0.2-0.4,0.3c-0.2-0.3-0.4-0.6-0.6-0.9
			c0.1-0.1,0.3-0.2,0.4-0.3C40.3,5.6,40.5,5.9,40.7,6.3z M41.3,7.7c-0.1,0.1-0.3,0.2-0.4,0.3c-0.1-0.4-0.3-0.7-0.4-1.1
			c0.1-0.1,0.3-0.2,0.4-0.3C41,6.9,41.2,7.3,41.3,7.7z M37.5,17.4c-1.7,0-3-2.5-3-5.6s1.3-5.6,3-5.6c1.2,0,2.3,1.3,2.7,3.3l0,0.1
			l0,0c0.2,0.7,0.3,1.4,0.3,2.2C40.5,14.9,39.1,17.4,37.5,17.4z M32.9,18.3c0.1,0,0.2,0,0.4,0c0.2,0.3,0.4,0.6,0.6,0.9
			c-0.1,0-0.2,0-0.2,0C33.4,18.9,33.1,18.6,32.9,18.3z M33.4,4.7c0.1,0,0.2,0,0.3,0C33.4,5,33.2,5.4,33,5.8c-0.1,0-0.3,0-0.4,0
			c0,0,0,0,0,0C32.8,5.4,33.1,5,33.4,4.7z M37.1,3.5c0.2,0.3,0.4,0.5,0.4,0.8c-0.1,0-0.1,0-0.2,0c-0.3,0-0.6,0.1-0.9,0.2
			c-0.2-0.3-0.5-0.6-0.8-0.8c0.4-0.2,0.8-0.3,1.2-0.4C36.9,3.3,37,3.4,37.1,3.5z M34.4,19.1c-0.2-0.3-0.5-0.6-0.7-0.9
			c0.3-0.1,0.7-0.2,1-0.5c0.2,0.3,0.5,0.6,0.8,0.8C35.2,18.9,34.7,19.1,34.4,19.1z M33.5,17.9c-0.2-0.4-0.4-0.8-0.6-1.3
			c0.3-0.1,0.7-0.2,1.1-0.4c0.2,0.4,0.4,0.9,0.6,1.2C34.2,17.6,33.8,17.8,33.5,17.9z M32,11.9c0-0.2,0-0.5,0-0.7
			c0.4,0,0.8,0.1,1.2,0.2c0,0.1,0,0.2,0,0.4c0,0.2,0,0.4,0,0.6c-0.4,0.1-0.8,0.2-1.2,0.3C32,12.4,32,12.1,32,11.9z M33.7,7.9
			c-0.2-0.2-0.6-0.4-1.1-0.5C32.8,7,33,6.6,33.2,6.2c0.5,0.1,0.9,0.3,1,0.5l0.1,0C34,7.1,33.9,7.5,33.7,7.9z M33.5,8.4L33.5,8.4
			c-0.1,0.4-0.2,0.7-0.2,1.1c-0.3-0.2-0.7-0.3-1.1-0.3c0.1-0.5,0.2-0.9,0.3-1.3C33,7.9,33.4,8.1,33.5,8.4z M32.1,9.5
			c0.4,0,0.9,0.2,1.1,0.4l0,0c-0.1,0.4-0.1,0.8-0.1,1.2c-0.3-0.1-0.7-0.2-1.2-0.2C32,10.4,32.1,9.9,32.1,9.5z M33.2,12.8
			c0,0.5,0.1,0.9,0.2,1.3c-0.4,0.2-0.8,0.3-1.1,0.3C32.1,14,32.1,13.5,32,13C32.4,13,32.8,12.9,33.2,12.8z M33.4,14.5
			c0.1,0.5,0.2,0.9,0.4,1.3c-0.3,0.2-0.7,0.4-1.1,0.4c-0.2-0.5-0.3-0.9-0.4-1.4C32.7,14.7,33,14.6,33.4,14.5z M34.4,6.4
			c-0.2-0.3-0.6-0.4-1-0.5c0.2-0.4,0.5-0.7,0.7-1.1C34.5,5,34.9,5.2,35,5.5C34.8,5.7,34.6,6.1,34.4,6.4z M35.3,5.2
			c-0.2-0.3-0.5-0.5-0.9-0.7c0.3-0.3,0.6-0.5,0.9-0.7c0.4,0.2,0.7,0.5,0.8,0.8C35.8,4.7,35.5,4.9,35.3,5.2z M35.5,3.2
			c-0.1,0-0.2,0.1-0.3,0.1c0,0,0,0,0,0C35.3,3.3,35.4,3.3,35.5,3.2z M34.9,3.6c-0.3,0.2-0.6,0.5-0.9,0.8c-0.1,0-0.1,0-0.2,0
			c0,0,0,0-0.1,0C34.1,4,34.4,3.8,34.9,3.6C34.8,3.6,34.8,3.6,34.9,3.6z M32.6,6.2C32.6,6.2,32.6,6.2,32.6,6.2c0.1,0,0.2,0,0.2,0
			c-0.2,0.4-0.4,0.8-0.5,1.2c-0.1,0-0.2,0-0.3,0c0,0,0,0,0,0c-0.1,0-0.2,0-0.2,0c0.2-0.4,0.4-0.9,0.6-1.2
			C32.4,6.2,32.5,6.2,32.6,6.2z M32,7.8C32,7.8,32,7.8,32,7.8c0.1,0,0.1,0,0.2,0c-0.1,0.4-0.2,0.9-0.3,1.3c-0.2,0-0.4,0-0.6,0
			c0.1-0.5,0.2-0.9,0.4-1.4C31.7,7.8,31.9,7.8,32,7.8z M31.8,9.5c-0.1,0.4-0.1,0.9-0.1,1.3c-0.2,0-0.5,0-0.7,0
			c0-0.4,0.1-0.8,0.2-1.3C31.3,9.5,31.5,9.5,31.8,9.5z M30.6,10.8c-0.1,0-0.2,0.1-0.3,0.1c0-0.4,0.1-0.8,0.1-1.2
			c0.1,0,0.2-0.1,0.3-0.1C30.7,10,30.6,10.4,30.6,10.8z M30.2,11.8c0-0.1,0-0.3,0-0.4c0.1,0,0.2-0.1,0.3-0.1c0,0.2,0,0.4,0,0.6
			c0,0.2,0,0.5,0,0.7c-0.1,0-0.2-0.1-0.3-0.1C30.2,12.2,30.2,12,30.2,11.8z M30.9,11.9c0-0.2,0-0.5,0-0.7c0.2,0,0.4,0,0.7,0
			c0,0.2,0,0.5,0,0.7c0,0.3,0,0.5,0,0.8c-0.2,0-0.5,0-0.7,0C30.9,12.4,30.9,12.1,30.9,11.9z M31.5,13.1c0.1,0,0.1,0,0.2,0
			c0,0.5,0.1,1,0.2,1.4c-0.2,0-0.5,0-0.7,0C31.1,14,31,13.5,31,13C31.1,13,31.3,13.1,31.5,13.1z M31.6,14.9c0.1,0,0.2,0,0.3,0
			c0.1,0.5,0.3,1,0.4,1.5c-0.2,0-0.4,0-0.6,0c-0.2-0.5-0.4-0.9-0.5-1.5C31.4,14.9,31.5,14.9,31.6,14.9z M32.1,16.7
			c0.1,0,0.3,0,0.4,0c0.2,0.4,0.4,0.9,0.6,1.2c-0.2,0-0.3,0-0.4,0c-0.3-0.4-0.5-0.8-0.7-1.2C32,16.7,32,16.7,32.1,16.7z M34.2,19.5
			C34.2,19.5,34.2,19.5,34.2,19.5c0.1,0.1,0.2,0.1,0.3,0.2C34.3,19.6,34.2,19.6,34.2,19.5C34.1,19.5,34.2,19.5,34.2,19.5z
			 M34.7,19.4c0.4-0.1,0.8-0.3,1.1-0.7c0.3,0.2,0.6,0.3,0.9,0.4c-0.3,0.4-0.8,0.7-1.2,0.8C35.2,19.9,34.9,19.7,34.7,19.4z M41.3,9.7
			c0.1,0,0.3,0,0.5-0.1c0.1,0.4,0.1,0.8,0.1,1.2c-0.2,0-0.3,0-0.5,0C41.4,10.4,41.4,10,41.3,9.7z M41.3,9.3c-0.1-0.4-0.1-0.7-0.2-1
			c0.1-0.1,0.3-0.2,0.4-0.3c0.1,0.4,0.2,0.8,0.3,1.2C41.6,9.3,41.4,9.3,41.3,9.3z M34.3,3.5C34.3,3.5,34.3,3.5,34.3,3.5
			c-0.3,0.2-0.6,0.5-1,0.8c-0.1,0-0.2,0-0.2,0C33.4,4,33.8,3.7,34.3,3.5z M32.6,4.8c0.1,0,0.2-0.1,0.4-0.1c-0.3,0.4-0.6,0.7-0.8,1.2
			c-0.1,0-0.3,0-0.4,0.1C32,5.5,32.3,5.1,32.6,4.8z M31.5,6.4c0.1-0.1,0.3-0.1,0.4-0.1c-0.2,0.4-0.4,0.8-0.6,1.2
			c-0.1,0-0.3,0.1-0.4,0.1C31.1,7.2,31.3,6.8,31.5,6.4z M30.8,8.1C30.9,8,31,7.9,31.2,7.9c-0.1,0.4-0.3,0.9-0.4,1.3
			c-0.1,0-0.2,0.1-0.3,0.1C30.6,8.9,30.7,8.5,30.8,8.1z M30.6,13c0,0.5,0.1,1,0.2,1.4c-0.1,0-0.2-0.1-0.3-0.1
			c-0.1-0.4-0.2-0.9-0.2-1.4C30.4,12.9,30.5,12.9,30.6,13z M30.9,14.8c0.1,0.5,0.3,1,0.5,1.4c-0.1,0-0.3-0.1-0.3-0.2
			c-0.2-0.4-0.3-0.9-0.4-1.4C30.7,14.7,30.8,14.8,30.9,14.8z M31.5,16.6c0.2,0.4,0.4,0.8,0.6,1.2c-0.1,0-0.2-0.1-0.3-0.1
			c-0.2-0.4-0.4-0.7-0.6-1.1C31.3,16.6,31.4,16.6,31.5,16.6z M32.4,18.3c0.2,0.2,0.3,0.4,0.5,0.6c-0.2-0.1-0.4-0.2-0.4-0.3l0,0
			c-0.1-0.1-0.2-0.3-0.3-0.4C32.2,18.2,32.3,18.2,32.4,18.3z M36.7,20.5L36.7,20.5c-0.3,0-0.6-0.1-0.9-0.2c0.5-0.2,0.9-0.5,1.2-1
			c0.1,0,0.2,0,0.3,0c0.1,0,0.3,0,0.4,0c0,0.6-0.2,0.9-0.6,1.1C37,20.4,36.9,20.4,36.7,20.5z M41.4,13.7c0.1-0.4,0.1-0.8,0.1-1.2
			c0.2,0,0.3,0.1,0.5,0.2c0,0.4-0.1,0.9-0.2,1.3C41.7,13.9,41.5,13.8,41.4,13.7z M41.5,12.1c0-0.1,0-0.2,0-0.3c0-0.2,0-0.4,0-0.6
			c0.2,0,0.3,0,0.5,0.1c0,0.2,0,0.4,0,0.6c0,0.2,0,0.3,0,0.5C41.9,12.2,41.7,12.1,41.5,12.1z M39.9,5.1c-0.1,0.1-0.3,0.2-0.4,0.3
			c-0.2-0.2-0.4-0.4-0.6-0.5C39,4.6,39,4.4,39,4.1C39.3,4.4,39.6,4.7,39.9,5.1z M39.5,19c0-0.2,0-0.4,0-0.7c0.2-0.3,0.5-0.6,0.7-0.9
			c0.1,0.2,0.2,0.3,0.2,0.5C40.1,18.3,39.8,18.6,39.5,19z"/>
	</g>
</g>
<g id="PL" class="st0">
	<g id="step3_x5F_truck" class="st1">
		<path class="st2" d="M22.6,18.6v0.3h-0.2l-2.6-2.1h0.4v-0.8h-1.8v0.8h0.4l-2.4,2.1h-0.3v-0.3h-0.6v1.1h0.6v-0.3h0.3l2.2,1.6h-0.8
			v0.6h1.6l0,0l0,0h1.5v-0.6h-0.7l2.1-1.6h0.2v0.3h0.6v-1.1H22.6z M19.4,21l-2-1.5h3.9L19.4,21z M17.4,18.9l2-1.7l2.1,1.7H17.4z"/>
		<path class="st2" d="M25.1,12.8c-0.5-1-0.7-2.1-0.7-3.2c0-0.4,0-0.9,0.1-1.3c0,0-0.1,0-0.1,0h-10c-0.2,0-0.4-0.2-0.4-0.4V6.3
			c0-0.4,0-0.8,0.1-1.2c0-0.2,0.2-0.3,0.4-0.3h9.8c0.2,0,0.3,0.1,0.4,0.3c0.1,0.4,0.1,0.8,0.1,1.2v0.9c0.1-0.3,0.2-0.6,0.4-0.9V5.9
			c0-0.2,0-0.3,0-0.5h0.4c0-0.1,0.1-0.1,0.1-0.2h-0.6c-0.1-1.1-0.5-2-0.9-2.1c-0.3-0.2-2.4-0.3-4.8-0.3c-2.4,0-4.5,0.1-4.8,0.3
			c-0.5,0.2-0.9,0.9-0.9,2.1h-0.7c-0.1,0-0.1,0-0.1,0.1v0.5h-0.2c-0.1,0-0.2,0.1-0.2,0.2v1c0,0.1,0.1,0.2,0.2,0.2h0.2v0.5
			c0,0.1,0,0.1,0.1,0.1h0.7v0V10c0,0.1,0.1,0.2,0.4,0.3v0.4c-0.3,0-0.5,0.2-0.5,0.3v3.6c0,0.5,0.1,1,0.4,1.2v0.6
			c0,0.2,0.1,0.3,0.3,0.3h1.2c0.2,0,0.3-0.1,0.3-0.3v-0.4h7.5v0.4c0,0.2,0.1,0.3,0.3,0.3h1.2c0.2,0,0.3-0.1,0.3-0.3v-0.6
			c0.2-0.3,0.4-0.7,0.4-1.2v-1.5C25.2,13,25.1,12.9,25.1,12.8z M13.6,5.7L13.6,5.7v2H13V7.3h0.2c0.1,0,0.2-0.1,0.2-0.2V6
			c0-0.1-0.1-0.2-0.2-0.2H13V5.4h0.6C13.6,5.5,13.6,5.6,13.6,5.7z M15.8,13.4h-0.9c-0.1,0-0.2-0.1-0.2-0.2v-2.3
			c0-0.1,0.1-0.2,0.2-0.2h0.8c0.1,0,0.2,0.1,0.2,0.2l0.1,2.3C16,13.3,15.9,13.4,15.8,13.4z M22.3,13.3
			C22.3,13.3,22.3,13.3,22.3,13.3l-5.8,0.1c0,0-0.1,0-0.1-0.1v-0.1c0,0,0-0.1,0.1-0.1h5.7c0,0,0.1,0,0.1,0.1V13.3z M22.3,12.6
			C22.3,12.7,22.3,12.7,22.3,12.6l-5.9,0.1c0,0-0.1,0-0.1-0.1v-0.1c0,0,0-0.1,0.1-0.1h5.8c0,0,0.1,0,0.1,0.1V12.6z M22.4,12
			C22.4,12,22.3,12.1,22.4,12l-5.9,0.1c0,0-0.1,0-0.1-0.1v-0.1c0,0,0-0.1,0.1-0.1h5.8c0,0,0.1,0,0.1,0.1V12z M22.4,11.3
			C22.4,11.4,22.4,11.4,22.4,11.3l-6,0.1c0,0-0.1,0-0.1-0.1v-0.1c0,0,0-0.1,0.1-0.1h5.9c0,0,0.1,0,0.1,0.1V11.3z M24,13.2
			c0,0.1-0.1,0.2-0.2,0.2h-0.9c-0.1,0-0.2-0.1-0.2-0.2l0.1-2.3c0-0.1,0.1-0.2,0.2-0.2h0.8c0.1,0,0.2,0.1,0.2,0.2V13.2z"/>
		<g>
			<path class="st2" d="M34.4,8.4l-0.3-0.8l1-1.2c-0.5-0.1-1.1,0.1-1.4,0.5c-0.4,0.5-0.5,1.1-0.2,1.7c0,0,0,0,0,0l-1,1.1l0.9,0.9
				l1.1-1.2c0,0,0,0,0,0c0.6,0.2,1.2,0,1.6-0.5c0.4-0.4,0.5-1,0.3-1.5l-1,1.2L34.4,8.4z"/>
			<path class="st2" d="M30,12.6c-0.2,0.2-0.2,0.6,0.1,0.8l0.1,0.1c0.2,0.2,0.6,0.2,0.8-0.1l1.3-1.5l-0.9-0.9L30,12.6z"/>
			<path class="st2" d="M33.2,10.8l-0.9-0.9l-1.1-1.2c0,0,0,0,0,0c0,0,0-0.1,0-0.1c0,0,0-0.1,0-0.1c0.2-0.5,0-1.1-0.3-1.5
				c-0.4-0.4-0.9-0.6-1.5-0.5l1.1,1.2l-0.3,0.8l-0.9,0.2l-1.1-1.2c-0.2,0.5,0,1.1,0.3,1.5c0.4,0.4,0.9,0.6,1.5,0.5c0,0,0.1,0,0.1,0
				c0,0,0.1,0,0.1,0c0,0,0,0,0,0l1.2,1.3l0.9,0.9l1.5,1.6c0.1,0.1,0.3,0.2,0.4,0.2c0.1,0,0.3-0.1,0.4-0.2l0.1-0.1
				c0.2-0.2,0.3-0.6,0-0.8L33.2,10.8z"/>
			<path class="st2" d="M32.4,2.7c-3.8,0-7,3.1-7,7c0,1,0.2,2,0.6,2.8c1.7,3.8,5.1,7.8,6.1,9c0.1,0.1,0.2,0.1,0.3,0.1
				c0.1,0,0.2,0,0.3-0.1c1-1.1,4.3-5.2,6.1-9c0.4-0.9,0.6-1.8,0.6-2.8C39.3,5.9,36.2,2.7,32.4,2.7z M32.4,15.1c-3,0-5.4-2.4-5.4-5.4
				c0-3,2.4-5.4,5.4-5.4s5.4,2.4,5.4,5.4C37.8,12.6,35.4,15.1,32.4,15.1z"/>
		</g>
	</g>
	<g id="step2_x5F_truck" class="st1">
		<path class="st2" d="M30.9,12.6h-0.1v-0.4c0,0,0-0.1-0.1-0.1h-0.6c-0.1-0.8-0.3-1.5-0.7-1.6c-0.2-0.1-1.8-0.2-3.6-0.2
			c-1.8,0-3.3,0.1-3.6,0.2c-0.4,0.1-0.6,0.7-0.7,1.6h-0.5c0,0-0.1,0-0.1,0.1v0.4h-0.1c-0.1,0-0.1,0.1-0.1,0.1v0.8
			c0,0.1,0.1,0.1,0.1,0.1H21V14c0,0,0,0.1,0.1,0.1h0.5v0v1.6c0,0.1,0.1,0.2,0.3,0.2v0.3c-0.2,0-0.4,0.1-0.4,0.3v2.7
			c0,0.4,0.1,0.7,0.3,0.9v0.5c0,0.1,0.1,0.2,0.2,0.2h0.9c0.1,0,0.2-0.1,0.2-0.2v-0.3h5.6v0.3c0,0.1,0.1,0.2,0.2,0.2h0.9
			c0.1,0,0.2-0.1,0.2-0.2V20c0.2-0.2,0.3-0.5,0.3-0.9v-2.7c0-0.1-0.2-0.2-0.4-0.3v-0.3c0.2,0,0.3-0.1,0.3-0.2v-1.6v0h0.5
			c0,0,0.1,0,0.1-0.1v-0.4h0.1c0.1,0,0.1-0.1,0.1-0.1v-0.8C31,12.6,31,12.6,30.9,12.6z M21.1,13.9v-0.3h0.1c0.1,0,0.1-0.1,0.1-0.1
			v-0.8c0-0.1-0.1-0.1-0.1-0.1h-0.1v-0.3h0.5c0,0.1,0,0.1,0,0.2v0v1.4H21.1z M23.2,18.2h-0.7c-0.1,0-0.1-0.1-0.1-0.1v-1.7
			c0-0.1,0.1-0.1,0.1-0.1h0.6c0.1,0,0.1,0.1,0.1,0.1l0.1,1.7C23.3,18.1,23.3,18.2,23.2,18.2z M28.1,18.1
			C28.1,18.1,28,18.1,28.1,18.1l-4.3,0.1c0,0-0.1,0-0.1-0.1V18c0,0,0-0.1,0.1-0.1H28C28,17.9,28.1,18,28.1,18.1L28.1,18.1z
			 M28.1,17.6C28.1,17.6,28,17.7,28.1,17.6l-4.3,0.1c0,0-0.1,0-0.1-0.1v-0.1c0,0,0-0.1,0.1-0.1H28C28,17.4,28.1,17.5,28.1,17.6
			L28.1,17.6z M28.1,17.1C28.1,17.1,28.1,17.2,28.1,17.1l-4.4,0.1c0,0-0.1,0-0.1-0.1V17c0,0,0-0.1,0.1-0.1H28
			C28.1,17,28.1,17,28.1,17.1L28.1,17.1z M28.1,16.6C28.1,16.7,28.1,16.7,28.1,16.6l-4.5,0.1c0,0-0.1,0-0.1-0.1v-0.1
			c0,0,0-0.1,0.1-0.1h4.4C28.1,16.5,28.1,16.5,28.1,16.6L28.1,16.6z M29.3,18c0,0.1-0.1,0.1-0.1,0.1h-0.7c-0.1,0-0.1-0.1-0.1-0.1
			l0.1-1.7c0-0.1,0.1-0.1,0.1-0.1h0.6c0.1,0,0.1,0.1,0.1,0.1V18z M29.9,14.1c0,0.1-0.1,0.3-0.3,0.3h-7.5c-0.1,0-0.3-0.1-0.3-0.3
			v-1.2c0-0.3,0-0.6,0.1-0.9c0-0.1,0.1-0.2,0.3-0.2h7.3c0.1,0,0.2,0.1,0.3,0.2c0.1,0.3,0.1,0.6,0.1,0.9V14.1z M30.6,12.6h-0.1
			c-0.1,0-0.1,0.1-0.1,0.1v0.8c0,0.1,0.1,0.1,0.1,0.1h0.1v0.3h-0.5v-1.3c0-0.1,0-0.3,0-0.4h0.5V12.6z"/>
		<g>
			<path class="st2" d="M33.7,3.7H18.1c-0.9,0-1.7,0.8-1.7,1.7v14.3c0,0.5,0.4,0.9,0.9,0.9c0.5,0,0.9-0.4,0.9-0.9v-10h15.2v10
				c0,0.5,0.4,0.9,0.9,0.9c0.5,0,0.9-0.4,0.9-0.9V5.4C35.4,4.5,34.6,3.7,33.7,3.7L33.7,3.7z M18.3,7.6h15.2v0.3H18.3V7.6z M18.3,6.8
				V6.5h15.2v0.3H18.3z M18.3,9V8.6h15.2V9H18.3z M18.3,9"/>
		</g>
	</g>
	<g id="step1_x5F_truck" class="st1">
		<path class="st2" d="M31.3,18.7c-0.2-0.3-0.2-0.3-0.3-0.5c0-0.1-0.1-0.1-0.1-0.3c-0.1-0.1-0.2-0.6,0-1c0.1-0.1,0.1-0.2,0.2-0.2
			c0,0,0,0-0.1,0c-0.6,0.9-1.4,1.4-2.3,1.4c-1.9,0-3.5-2.6-3.5-5.9c0-3.3,1.6-5.9,3.5-5.9c0.8,0,1.6,0.5,2.2,1.3c0,0,0.1,0,0.1,0
			c-0.2-0.3-0.2-0.8,0-1c0.1-0.1,0.1-0.2,0.1-0.3c0.1-0.2,0.2-0.4,0.4-0.7c0.1-0.2,0.2-0.3,0.4-0.3c0,0-0.1-0.1-0.1-0.1c0,0,0,0,0,0
			C32,5,32,4.8,31.9,4.7c-0.3-0.3-0.6-0.6-0.9-0.8c-0.1-0.1-0.7,0-0.7,0l-0.1-0.1c0,0,0,0,0,0c0-0.2,0-0.4-0.2-0.5
			C29.6,3.1,29.3,3,29,3c-0.1,0-0.5,0-0.7,0C28.1,3,28.1,3,28,3v0h-4c-0.6,0-1.3,0.2-1.8,0.5C21.3,4,20.6,4.6,20,5.4
			c0-0.1-0.1-0.1-0.1-0.2c0,0,0,0,0,0c0.1-0.2,0.1-0.4-0.1-0.5c-0.3-0.3-0.6-0.6-0.9-0.8c-0.1-0.1-0.7,0-0.7,0l-0.1-0.1c0,0,0,0,0,0
			c0-0.2,0-0.4-0.2-0.5c-0.3-0.1-0.7-0.2-1-0.3c-0.1,0-0.5,0-0.7,0C16.1,3,16,3,15.9,3v0h-4c-0.6,0-1.3,0.2-1.8,0.5
			c-4.1,2.3-5,7.6-4,11.8c0.8,3.6,2.9,6,5.3,6.2c0,0,0.1,0,0.1,0h4.2c0.1,0,0.2,0.1,0.3,0.1c0.4,0,0.6,0,0.6,0
			c0.4,0,0.6-0.1,0.7-0.1c0.1,0,0.4-0.5,0.4-0.5s0.5,0,0.6,0c0,0,0.1,0,0.1,0c0.3-0.2,0.6-0.4,0.9-0.7c0.1-0.1,0.2-0.3,0.1-0.5
			c0,0,0,0,0,0c0.1-0.1,0.2-0.2,0.3-0.3c0,0,0.2,0,0.3,0c1,1.2,2.1,2,3.4,2c0,0,0.1,0,0.1,0h4.2c0.1,0,0.2,0.1,0.3,0.1
			c0.4,0,0.6,0,0.6,0c0.4,0,0.6-0.1,0.7-0.1c0.1,0,0.4-0.5,0.4-0.5s0.5,0,0.6,0c0,0,0.1,0,0.1,0c0.3-0.2,0.6-0.4,0.9-0.7
			c0.1-0.1,0.2-0.3,0.1-0.5c0,0,0,0,0,0c0.1-0.1,0.2-0.2,0.3-0.3c0,0,0.1,0,0.2,0c0,0,0-0.1,0-0.1c0,0,0,0,0,0c-0.1,0-0.1,0-0.1,0
			C31.8,19.1,31.4,18.9,31.3,18.7z M26.8,3.8c0.1,0.2-0.6,0.6-0.6,0.3C26.3,4,26.6,3.9,26.8,3.8z M14.7,3.8C14.8,4,14,4.4,14.1,4.1
			C14.3,4,14.5,3.9,14.7,3.8z M13.9,3.7c-0.4,0.2-0.7,0.4-1,0.7l-0.5,0.1C12.8,4.2,13.3,3.9,13.9,3.7L13.9,3.7z M12.5,3.9
			c-0.4,0.3-0.8,0.6-1.1,0.9L11,4.9C11.4,4.5,11.9,4.2,12.5,3.9z M9.8,6.9C9.6,7.3,9.4,7.6,9.3,8L8.8,8.1C9,7.8,9.1,7.4,9.3,7.1
			L9.8,6.9z M9.6,6.5c0.2-0.3,0.4-0.6,0.7-0.9l0.4-0.1c-0.2,0.3-0.4,0.6-0.6,0.9L9.6,6.5z M9.7,12.7l-0.6,0.2c0-0.4,0-0.8,0-1.2
			l0.6-0.2C9.6,11.9,9.6,12.3,9.7,12.7z M8.8,9.6L8.4,9.7C8.4,9.4,8.5,9,8.6,8.6l0.5-0.1C9,8.9,8.9,9.2,8.8,9.6z M8.7,10.1
			c0,0.1,0,0.1,0,0.2c0,0.3-0.1,0.7-0.1,1l-0.4,0.1c0-0.4,0-0.7,0.1-1.1c0,0,0-0.1,0-0.1L8.7,10.1z M8.6,11.8c0,0.4,0,0.8,0,1.2
			l-0.4,0.1c0-0.4-0.1-0.8-0.1-1.2L8.6,11.8z M8.7,13.5c0.1,0.5,0.1,0.9,0.2,1.3l-0.4,0.1c-0.1-0.4-0.2-0.9-0.2-1.3L8.7,13.5z
			 M9,15.3c0.1,0.4,0.2,0.8,0.4,1.2L9,16.6c-0.2-0.4-0.3-0.8-0.4-1.2L9,15.3z M9.3,14.7c-0.1-0.4-0.2-0.9-0.2-1.3l0.6-0.2
			c0,0.5,0.1,0.9,0.2,1.3L9.3,14.7z M9.8,10.3c0,0.2-0.1,0.5-0.1,0.7l-0.6,0.2c0-0.3,0-0.5,0.1-0.8c0-0.1,0-0.3,0.1-0.4l0.6-0.2
			C9.8,9.9,9.8,10.1,9.8,10.3z M9,6.7L8.5,6.8c0.2-0.3,0.4-0.6,0.6-0.9l0.4-0.1C9.4,6.1,9.2,6.4,9,6.7z M8.7,7.2
			c-0.2,0.3-0.3,0.7-0.4,1L7.8,8.4c0.1-0.4,0.3-0.7,0.4-1L8.7,7.2z M8.1,8.8C8,9.2,7.9,9.5,7.9,9.9L7.4,10C7.5,9.7,7.6,9.3,7.7,9
			L8.1,8.8z M7.8,10.4c-0.1,0.4-0.1,0.8-0.1,1.2l-0.5,0.1c0-0.4,0-0.8,0.1-1.2L7.8,10.4z M7.7,12.1c0,0.4,0,0.8,0.1,1.2l-0.4,0.1
			c0-0.4-0.1-0.8-0.1-1.2L7.7,12.1z M7.8,13.7c0.1,0.4,0.1,0.9,0.3,1.3l-0.4,0.1c-0.1-0.4-0.2-0.9-0.3-1.3L7.8,13.7z M8.2,15.5
			c0.1,0.4,0.3,0.8,0.4,1.2l-0.4,0.1c-0.2-0.4-0.3-0.8-0.5-1.2L8.2,15.5z M8.8,17.2c0.2,0.4,0.4,0.8,0.6,1.1L9,18.4
			c-0.2-0.4-0.4-0.7-0.6-1.1L8.8,17.2z M9.2,17l0.4-0.1c0.2,0.4,0.3,0.8,0.6,1.1l-0.3,0.1C9.6,17.8,9.4,17.4,9.2,17z M10.3,18.4
			c0.2,0.3,0.4,0.6,0.6,0.8l-0.3,0.1c-0.2-0.3-0.4-0.5-0.6-0.8L10.3,18.4z M10.8,18.3l0.5-0.1c0.2,0.3,0.4,0.6,0.5,0.9l-0.4,0.1
			C11.2,18.9,11,18.6,10.8,18.3z M10.6,17.9c-0.2-0.4-0.4-0.7-0.6-1.1l0.5-0.2c0.2,0.4,0.3,0.8,0.5,1.1L10.6,17.9z M9.8,16.4
			c-0.2-0.4-0.3-0.8-0.4-1.2l0.5-0.2c0.1,0.4,0.2,0.8,0.4,1.2L9.8,16.4z M10,9.2L9.3,9.4c0.1-0.4,0.2-0.8,0.3-1.1l0.7-0.2
			C10.2,8.5,10.1,8.9,10,9.2z M9.9,7.8c0.2-0.4,0.3-0.7,0.5-1.1l0.7-0.2c-0.2,0.4-0.4,0.7-0.6,1.1l0,0L9.9,7.8z M10.8,6.1
			c0.2-0.3,0.5-0.6,0.8-0.9L12.2,5c-0.3,0.3-0.5,0.6-0.7,0.9L10.8,6.1z M10.1,5.2L9.7,5.3c0.5-0.6,1.2-1,1.9-1.4
			C11,4.3,10.5,4.7,10.1,5.2z M6.8,15.1c-0.9-3.9-0.1-8.9,3.7-11c0,0,0,0,0,0c-1.9,1.3-3.2,3.5-3.6,6.3c-0.5,3.7,0.7,7.6,3.1,10
			C8.5,19.5,7.3,17.6,6.8,15.1z M10,19.6c-0.2-0.3-0.4-0.5-0.7-0.8l0.3-0.1c0.2,0.3,0.4,0.6,0.6,0.8L10,19.6z M11,20.6
			c-0.3-0.2-0.5-0.4-0.7-0.7l0.2-0.1c0.2,0.2,0.4,0.5,0.7,0.7L11,20.6z M11.7,20.4c-0.2-0.2-0.5-0.4-0.7-0.7l0.2-0.1
			c0.2,0.2,0.4,0.5,0.6,0.7L11.7,20.4z M12.1,20.7l0.1,0c0,0,0,0,0,0H12.1z M12.3,20.2c-0.2-0.2-0.4-0.4-0.7-0.7l0.4-0.1
			c0.2,0.2,0.4,0.5,0.6,0.7L12.3,20.2z M13,20.7c-0.1-0.1-0.2-0.1-0.2-0.2l0.3-0.1c0.1,0.1,0.2,0.2,0.3,0.3H13z M14,20.7
			c-2.9-2.2-4.4-6.3-3.8-10.4c0.2-1.6,0.7-2.9,1.5-4.1l0,0l0,0c0.6-0.9,1.3-1.6,2.2-2.1c-0.3,0.2-0.5,0.4-0.8,0.7
			c0.5,0-0.4,1.1-0.5,0.6c-0.4,0.5-0.7,1-1,1.5c0.4-0.1-0.1,1.2-0.4,0.9c-0.2,0.6-0.4,1.2-0.5,1.9c0.4-0.1,0.2,1.1-0.1,0.9
			c-0.1,0.5-0.1,1-0.1,1.6c0,0.1,0,0.2,0,0.3c0.4-0.2,0.6,1,0.1,1c0.1,0.7,0.2,1.3,0.3,1.9c0.2-0.2,0.8,0.8,0.3,0.9
			c0.2,0.5,0.4,1,0.7,1.5c0.1-0.3,0.9,0.6,0.4,0.7c0.3,0.4,0.7,0.8,1,1.2c0.1-0.3,0.8,0.3,0.5,0.5c0.2,0.1,0.4,0.3,0.6,0.4H14z
			 M16.7,18.1c-1.9,0-3.5-2.6-3.5-5.9c0-3.3,1.6-5.9,3.5-5.9c0.8,0,1.5,0.4,2.1,1.1c-1,2.4-1.1,5.3-0.5,7.8c0.1,0.6,0.3,1.2,0.5,1.8
			C18.1,17.7,17.4,18.1,16.7,18.1z M19.4,18.4L19.4,18.4C19.4,18.4,19.4,18.4,19.4,18.4L19.4,18.4z M18.8,15.1
			c-0.9-3.9-0.1-8.8,3.7-11c0,0,0,0,0,0c-1.9,1.3-3.2,3.5-3.6,6.3c-0.5,3.7,0.7,7.6,3.1,10C20.6,19.5,19.4,17.6,18.8,15.1z
			 M23.2,20.7c-2.8-2.2-4.3-6.3-3.8-10.3c0.4-3,2-5.3,4.2-6.5c-2,1.3-3.4,3.6-3.8,6.4c-0.6,4,0.9,8,3.6,10.4
			C23.4,20.7,23.3,20.7,23.2,20.7z M24.2,20.7c-2.9-2.2-4.4-6.3-3.8-10.4c0.4-3,1.9-5.3,4.2-6.5c-2,1.3-3.4,3.6-3.8,6.4
			c-0.6,4,0.9,8,3.6,10.4H24.2z M25.1,20.7c-2.9-2.2-4.4-6.3-3.8-10.4c0.5-3.2,2.2-5.6,4.7-6.7H26c-2.2,1.3-3.7,3.6-4.1,6.6
			c-0.6,4,0.9,8,3.6,10.4H25.1z M26.1,20.7c-2.9-2.2-4.4-6.3-3.8-10.4c0.4-2.8,1.7-5,3.7-6.2c-0.3,0.2-0.5,0.4-0.8,0.7
			c0.5,0-0.4,1.1-0.5,0.6c-0.4,0.5-0.7,1-1,1.5c0.4-0.1-0.1,1.2-0.4,0.9c-0.2,0.6-0.4,1.2-0.5,1.9c0.4-0.1,0.2,1.1-0.1,0.9
			c-0.1,0.5-0.1,1-0.1,1.6c0,0.1,0,0.2,0,0.3c0.4-0.2,0.6,1,0.1,1c0.1,0.7,0.2,1.3,0.3,1.9c0.2-0.2,0.8,0.8,0.3,0.9
			c0.2,0.5,0.4,1,0.7,1.5c0.1-0.3,0.9,0.6,0.4,0.7c0.3,0.4,0.7,0.8,1,1.2c0.1-0.3,0.8,0.3,0.5,0.5c0.2,0.1,0.4,0.3,0.6,0.4H26.1z"/>
		<path class="st2" d="M37.8,20.8c-0.3,0-0.6,0-0.7,0c0,0,0.1-0.1,0.2-0.3c0.2-0.1,0-0.3-0.1-0.3c-0.3-0.2-0.5-0.5-0.7-0.7
			c-0.1-0.1-0.2-0.2-0.4-0.2c-0.4,0-0.9,0-1,0c0,0,0.2-0.2,0.5-0.5c0.2-0.2,0.1-0.4,0.1-0.5c-0.2-0.3-0.4-0.7-0.6-1.1
			c0-0.1-0.1-0.2-0.4-0.2c-0.4,0-0.8,0-0.9,0c0,0,0.3-0.3,0.6-0.6c0.1-0.1,0.2-0.2,0.1-0.5c-0.1-0.4-0.2-0.9-0.3-1.4
			c0-0.1-0.1-0.3-0.4-0.3c-0.3,0-0.7,0-0.8,0c0,0,0.3-0.3,0.7-0.6c0.1-0.1,0.3-0.1,0.3-0.5c0-0.1,0-0.2,0-0.3c0-0.4,0-0.8,0.1-1.1
			c0-0.3-0.2-0.4-0.3-0.4c-0.4,0-0.7,0-0.8,0c-0.1,0,0.5-0.4,1-0.7c0.1-0.1,0.3-0.2,0.4-0.5c0.1-0.4,0.2-0.9,0.4-1.3
			c0.1-0.4-0.1-0.4-0.3-0.4c-0.4,0-0.7,0-0.7,0c-0.1,0,0.6-0.4,1.2-0.7c0.1-0.1,0.4-0.2,0.6-0.6c0.2-0.3,0.4-0.6,0.6-0.8
			c0.2-0.3,0-0.3-0.1-0.3c-0.5,0-0.9,0-0.9,0c-0.1,0,1-0.4,1.6-0.6c0.1,0,0.3-0.1,0.6-0.3c0.2-0.2,0.4-0.4,0.6-0.5
			c0.2-0.1,0-0.2-0.1-0.2c-0.5,0-1,0-1.1,0c-0.1,0,1.3-0.3,1.9-0.3c0.5-0.3,1.3-0.5,1.8-0.7c-0.1,0-0.3,0-0.3,0h-3.1
			c-0.2,0-0.9,0-1.1,0c-0.4,0-0.6,0.1-0.9,0.2C35,3.5,34.9,3.8,35,3.8c0.2,0.1,0.8,0.3,0.7,0.3c-0.1,0-0.9,0-1.4,0
			c-0.2,0-0.5,0-0.6,0.1c-0.3,0.2-0.2,0.2-0.5,0.5c-0.1,0.1-0.1,0.4,0,0.4c0.2,0.1,0.9,0.6,0.8,0.6c-0.1,0-1.2,0.1-1.4,0.1
			c-0.3,0-0.4,0-0.5,0.1c-0.3,0.4-0.3,0.5-0.5,0.9c-0.1,0.2-0.1,0.5,0,0.5c0.1,0.1,0.7,0.3,1.1,0.7c-0.4,0-1.2,0.1-1.4,0.1
			c-0.2,0-0.3,0-0.4,0.2c-0.2,0.5-0.2,0.7-0.3,1.2c0,0.2,0,0.4,0.2,0.5c0.2,0.1,1.3,0.9,1.2,0.9c-0.2,0-1.2,0.2-1.4,0.2
			c-0.2,0-0.3,0.1-0.3,0.3c0,0.4,0,0.4,0,0.8c0,0.1,0,0.3,0,0.4c0,0.2,0.2,0.4,0.4,0.5c0.2,0.1,1.4,0.7,1.3,0.8
			c-0.1,0-1.2,0.2-1.3,0.2c-0.3,0-0.3,0.3-0.3,0.5c0.1,0.5,0.1,0.6,0.2,1.1c0,0.1,0.2,0.3,0.3,0.3c0.1,0,1.8,0.7,1.7,0.8
			c-0.1,0-1.1,0.2-1.3,0.2c-0.2,0-0.2,0.3-0.1,0.5c0.2,0.4,0.1,0.3,0.3,0.7c0,0.1,0.3,0.2,0.3,0.2c0.1,0,2.1,0.6,2,0.6
			c-0.1,0-1.1,0.1-1.3,0.1c-0.2,0-0.2,0.3-0.1,0.4c0.3,0.3,0.2,0.3,0.5,0.5c0.2,0.1,0.6,0.1,0.6,0.2c0.4,0.1,2.1,0.3,2,0.3
			c-0.1,0-0.7,0.1-1.3,0.2c-0.2,0,0,0.3,0.1,0.3c0.3,0.2,0.7,0.3,1,0.4c0,0,0,0,0,0c0.1,0,0.9,0.1,1,0.1c0.2,0,2.6,0,3.7,0
			c-0.7-0.2-1.6-0.5-2.2-0.9C38.2,20.8,38,20.8,37.8,20.8z"/>
		<path class="st2" d="M46.8,11.6c0-0.2-0.1-0.4-0.3-0.3c0,0,0,0,0,0c0-0.3,0-0.5-0.1-0.8c0,0,0,0,0,0c0.1-0.1,0.2-0.3,0.2-0.5
			c-0.1-0.5-0.2-1-0.4-1.5c-0.1-0.2-0.4-0.3-0.4-0.3s-0.1-0.4-0.2-0.6c0,0,0,0,0,0c0.1-0.1,0.1-0.4,0.1-0.5
			c-0.2-0.4-0.4-0.9-0.7-1.2c-0.1-0.1-0.5-0.1-0.5-0.1c0-0.1-0.1-0.2-0.3-0.4c0,0,0,0,0,0c0.1-0.2,0.1-0.4-0.1-0.5
			c-0.3-0.3-0.6-0.6-0.9-0.8c-0.1-0.1-0.7,0-0.7,0L42.5,4c0,0,0,0,0,0c0-0.2,0-0.4-0.2-0.5c-0.3-0.1-0.7-0.2-1-0.3
			c-0.1,0-0.5,0-0.7,0C40,3.4,39.5,3.6,39,3.9c0.5,0.1-0.6,0.8-0.5,0.4c-0.3,0.2-0.6,0.5-0.9,0.8c0.5,0-0.4,1.1-0.5,0.6
			c-0.4,0.5-0.7,1-1,1.5c0.4-0.1-0.1,1.2-0.4,0.9c-0.2,0.6-0.4,1.2-0.5,1.9c0.4-0.1,0.2,1.1-0.1,0.9C35,11.4,35,12,35,12.5
			c0,0.1,0,0.2,0,0.3c0.4-0.2,0.6,1,0.1,1c0.1,0.7,0.2,1.3,0.3,1.9c0.2-0.2,0.8,0.8,0.3,0.9c0.2,0.5,0.4,1,0.7,1.5
			c0.1-0.3,0.9,0.6,0.4,0.7c0.3,0.4,0.7,0.8,1,1.2c0.1-0.3,0.8,0.3,0.5,0.5c0.6,0.5,1.3,0.9,2.1,1.2c0.4,0,0.6,0,0.6,0
			c0.4,0,0.6-0.1,0.7-0.1c0.1,0,0.4-0.5,0.4-0.5s0.5,0,0.6,0c0,0,0.1,0,0.1,0c0.3-0.2,0.6-0.4,0.9-0.7c0.1-0.1,0.2-0.3,0.1-0.5
			c0,0,0,0,0,0c0.1-0.1,0.2-0.2,0.3-0.3c0,0,0.2,0,0.3,0c0.1,0,0.1,0,0.2-0.1c0.3-0.3,0.5-0.7,0.7-1.1c0.1-0.2,0.1-0.4,0-0.5
			c0,0,0,0,0,0c0.1-0.2,0.2-0.3,0.3-0.6c0,0,0.1,0,0.2,0c0.1,0,0.2-0.1,0.2-0.2c0.2-0.5,0.3-0.9,0.4-1.5c0-0.2,0-0.4-0.2-0.5
			c0,0,0,0,0,0c0-0.2,0.1-0.5,0.1-0.7c0,0,0,0,0,0c0,0,0,0,0,0c0.1,0,0.2-0.1,0.3-0.3c0.1-0.5,0.1-1.1,0.1-1.6
			C46.8,12.2,46.8,11.9,46.8,11.6z M41.1,18.4c-1.9,0-3.5-2.6-3.5-5.9c0-3.3,1.6-5.9,3.5-5.9c1.9,0,3.5,2.6,3.5,5.9
			C44.6,15.7,43,18.4,41.1,18.4z"/>
	</g>
</g>
<g id="QUAD" class="st0">
	<g id="step3_x5F_quad" class="st1">
		<path class="st2" d="M23.9,17.3h-0.3l-3.5-2.8h0.6v-1h-2.4v1h0.6l-3.3,2.8h-0.5v-0.3h-0.8v1.5h0.8v-0.3h0.5l3,2.2h-1v0.8h2.1l0,0
			l0,0h2v-0.8h-0.9l2.9-2.2h0.3v0.3h0.8v-1.5h-0.8V17.3z M19.7,20.1l-2.7-2h5.3L19.7,20.1z M16.8,17.3l2.7-2.3l2.8,2.3H16.8z"/>
		<path class="st2" d="M24,8.8c0-0.9,0.2-1.8,0.4-2.6c-0.1-0.3-0.5-0.6-0.9-0.6h-1.4l-0.5-1.2c-0.1-0.4-0.5-0.6-0.8-0.6h-0.5
			l1.2-0.8c0.1,0.2,0.2,0.3,0.4,0.3h1.1c0.3,0,0.5-0.2,0.5-0.5V2.5c0-0.3-0.2-0.5-0.5-0.5H22c-0.3,0-0.5,0.2-0.5,0.5v0.1l-2,1.2
			l-2-1.2V2.5C17.5,2.3,17.3,2,17,2h-1.1c-0.3,0-0.5,0.2-0.5,0.5v0.4c0,0.3,0.2,0.5,0.5,0.5H17c0.2,0,0.4-0.1,0.4-0.3l1.2,0.8h-0.5
			c-0.4,0-0.7,0.2-0.8,0.6l-0.5,1.2h-1.4c-0.4,0-0.7,0.2-0.9,0.6l-0.2,0.6c-0.2,0.5-0.1,1.2,0.3,1.6l-1.2,1.3h-0.1
			c-0.1,0-0.1,0-0.2,0c0,0,0,0,0,0c0,0-0.1,0-0.1,0c0,0-0.1,0-0.1,0c0,0,0,0,0,0c0,0,0,0-0.1,0.1c0,0,0,0,0,0c0,0-0.1,0.1-0.1,0.1
			c0,0,0,0,0,0c0,0,0,0,0,0.1l0,0c0,0.1-0.1,0.2-0.1,0.3v0.2l0,0v1l0,0v0.5v1v0.5V15v0c0,0.4,0.3,0.7,0.7,0.7h0h1.8h0
			c0.4,0,0.7-0.3,0.7-0.7v-1.1l2.5-0.9c0.3,0.3,0.7,0.5,1.1,0.5c0.4,0,0.8-0.2,1.1-0.4l2.6,0.9V15c0,0.4,0.3,0.7,0.7,0.7h0h1.8h0
			c0.3,0,0.6-0.2,0.7-0.5c-0.6-1-1.2-2-1.6-3C24.2,11.1,24,10,24,8.8z M17.8,4.6c0.1-0.2,0.2-0.3,0.4-0.3h1.3c0,0,0,0,0,0
			c0,0,0,0,0.1,0c0,0,0,0,0,0h0h0c0,0,0,0,0,0c0,0,0,0,0.1,0c0,0,0,0,0,0h1.3c0.2,0,0.4,0.1,0.4,0.3l0.4,1.1h-4.3L17.8,4.6z
			 M15.9,13.7L15.9,13.7l0-0.5l0,0V13.7z M18,11.6l-2,0.6l0,0v-0.6v-1v-0.1c0-0.1,0-0.2-0.1-0.3l0,0c0,0,0,0,0,0c0,0,0,0,0,0
			c0,0,0,0,0-0.1c0,0,0,0,0,0c0,0,0,0,0,0c0,0,0,0-0.1-0.1c0,0,0,0,0,0c0,0-0.1,0-0.1-0.1l0.3-0.3l1.4,1.4c0.2,0.2,0.4,0.3,0.7,0.3
			h0.3C18,11.3,18,11.4,18,11.6z M17.2,8.8c-0.3,0-0.6-0.3-0.6-0.6V7.6c0-0.3,0.3-0.6,0.6-0.6h1.1c0.3,0,0.6,0.3,0.6,0.6v0.7
			c0,0.3-0.3,0.6-0.6,0.6H17.2z M20.7,11.8c0,0,0,0.1,0,0.1c0,0,0,0.1,0,0.1c0,0.1,0,0.1-0.1,0.2c0,0,0,0,0,0.1c0,0,0,0.1-0.1,0.1
			c0,0,0,0.1-0.1,0.1c-0.2,0.3-0.5,0.4-0.9,0.4c-0.4,0-0.7-0.2-0.9-0.5c0,0,0,0,0-0.1c0,0,0-0.1-0.1-0.1c0,0,0,0,0-0.1
			c0,0,0-0.1,0-0.1c0,0,0,0,0-0.1c0-0.1,0-0.1,0-0.2l0,0c0-0.3,0.1-0.6,0.3-0.8c0,0,0,0,0,0c0,0,0.1-0.1,0.1-0.1c0,0,0,0,0,0
			c0,0,0.1-0.1,0.2-0.1c0,0,0,0,0,0c0.1,0,0.1,0,0.2-0.1c0,0,0,0,0,0c0.1,0,0.1,0,0.2,0c0.1,0,0.1,0,0.2,0c0,0,0,0,0,0
			c0.1,0,0.1,0,0.2,0.1c0,0,0,0,0,0c0.1,0,0.1,0.1,0.2,0.1c0,0,0,0,0,0c0,0,0.1,0.1,0.1,0.1c0,0,0,0,0,0
			C20.5,11.2,20.7,11.5,20.7,11.8L20.7,11.8z M20.2,8.3V7.6c0-0.3,0.3-0.6,0.6-0.6h1.1c0.3,0,0.6,0.3,0.6,0.6v0.7
			c0,0.3-0.3,0.6-0.6,0.6h-1.1C20.5,8.8,20.2,8.6,20.2,8.3z M23.2,13.7L23.2,13.7l0-0.5l0,0V13.7z M23.6,9.8c0,0-0.1,0-0.1,0
			c0,0,0,0,0,0c0,0,0,0-0.1,0c0,0,0,0,0,0c0,0,0,0-0.1,0.1c0,0,0,0,0,0c0,0,0,0,0,0.1c0,0,0,0,0,0l0,0c0,0.1-0.1,0.2-0.1,0.3v0.2
			l0,0v1l0,0v0.6l0,0l-2-0.6c0-0.2-0.1-0.4-0.1-0.6h0.3c0.2,0,0.5-0.1,0.7-0.3l1.4-1.4L23.6,9.8C23.6,9.8,23.6,9.8,23.6,9.8z"/>
		<path class="st2" d="M34,7.8l-0.3-0.8l1-1.2c-0.5-0.1-1.1,0.1-1.4,0.5c-0.4,0.5-0.5,1.1-0.2,1.7c0,0,0,0,0,0l-1,1.1L33,10L34,8.7
			c0,0,0,0,0,0c0.6,0.2,1.2,0,1.6-0.5c0.4-0.4,0.5-1,0.3-1.5l-1,1.2L34,7.8z"/>
		<path class="st2" d="M29.6,11.9c-0.2,0.2-0.2,0.6,0.1,0.8l0.1,0.1c0.2,0.2,0.6,0.2,0.8-0.1l1.3-1.6l-0.9-0.9L29.6,11.9z"/>
		<path class="st2" d="M32.9,10.1L32,9.2l-1.1-1.2c0,0,0,0,0,0c0,0,0-0.1,0-0.1c0,0,0-0.1,0-0.1c0.2-0.5,0-1.1-0.3-1.5
			c-0.4-0.4-0.9-0.6-1.5-0.5L30.2,7l-0.3,0.8L29,8L28,6.9c-0.2,0.5,0,1.1,0.3,1.5c0.4,0.4,1,0.6,1.5,0.5c0,0,0.1,0,0.1,0
			c0,0,0.1,0,0.1,0c0,0,0,0,0,0l1.2,1.3l0.9,0.9l1.5,1.6c0.1,0.1,0.3,0.2,0.4,0.2c0.1,0,0.3-0.1,0.4-0.2l0.1-0.1
			c0.2-0.2,0.3-0.6,0-0.8L32.9,10.1z"/>
		<path class="st2" d="M32,2c-3.8,0-7,3.1-7,7c0,1,0.2,2,0.6,2.9c1.7,3.8,5.1,7.9,6.1,9C31.8,21,31.9,21,32,21c0.1,0,0.2,0,0.3-0.1
			c1-1.1,4.3-5.2,6.1-9C38.8,11,39,10,39,9C39,5.2,35.9,2,32,2z M32,14.4c-3,0-5.5-2.4-5.5-5.5c0-3,2.4-5.5,5.5-5.5
			c3,0,5.5,2.4,5.5,5.5C37.5,12,35,14.4,32,14.4z"/>
	</g>
	<g id="step2_x5F_quad" class="st1">
		<path class="st2" d="M23.7,15l0-6.1c0-0.9-0.7-1.6-1.6-1.6c0,0-14-0.4-15.1,0.1c-0.9,0.4-2.5,1.7-3.8,2.8
			c-0.4,0.3-0.8,0.7-1.4,1.1c-0.4,0.3-0.8,0.7-0.8,1.3v1.9c0,0.3,0,0.5-0.1,0.6c-0.2,0.1-0.3,0.3-0.3,0.6l0.3,1.8
			c0,0.3,0.3,0.4,0.5,0.4h0.8c0.1,0,0.1,0,0.1,0.1c0.3,1,1.2,1.7,2.3,1.7c1.1,0,2-0.7,2.3-1.7c0-0.1,0.1-0.1,0.1-0.1h9.6
			c0.1,0,0.1,0,0.1,0.1c0.3,1,1.2,1.7,2.3,1.7c1.1,0,2-0.7,2.3-1.7c0-0.1,0.1-0.1,0.1-0.1h2.2c0.1,0,0.1-0.1,0.1-0.1v-2.2
			C23.8,15.3,23.7,15.1,23.7,15C23.7,15,23.7,15,23.7,15z M4.7,18.6c-1,0-1.7-1.1-1.1-2.1c0.1-0.1,0.2-0.2,0.3-0.3
			C5,15.6,6,16.4,6,17.3C6,18,5.5,18.6,4.7,18.6z M10.3,11.1c0,0.5-0.4,0.8-0.8,0.8h-5c-0.2,0-0.3-0.3-0.2-0.4l2.6-2.2
			C7.2,9,7.7,8.8,8.2,8.8h1.6c0.3,0,0.5,0.2,0.5,0.5V11.1z M15.6,14.8C15.6,14.9,15.6,14.9,15.6,14.8c-0.3,0.2-0.7,0.1-0.9-0.1
			c-0.2-0.2-0.2-0.7,0-0.9l2.2-2.2c0,0,0-0.1,0-0.1c-0.2-0.6-0.1-1.3,0.4-1.7c0.3-0.3,0.8-0.5,1.3-0.5c0.1,0,0.2,0.1,0.2,0.2
			c0,0.1,0,0.2-0.1,0.3l-0.7,0.7c0,0,0,0.1,0,0.1c0,0,0,0.1,0,0.1l0.8,0.8c0,0,0.1,0,0.1,0s0.1,0,0.1,0l0.7-0.7
			c0.1-0.1,0.2-0.1,0.3-0.1c0.1,0,0.2,0.1,0.2,0.2c0,0.5-0.2,0.9-0.5,1.3c-0.3,0.3-0.7,0.5-1.2,0.5c-0.2,0-0.4,0-0.6-0.1
			c0,0-0.1,0-0.1,0L15.6,14.8z M19.1,18.6c-1,0-1.7-1.1-1.1-2.1c0.1-0.1,0.2-0.2,0.3-0.3c1-0.6,2.1,0.1,2.1,1.1
			C20.4,18,19.9,18.6,19.1,18.6z"/>
		<path class="st2" d="M22.9,2.1c0.1,0.2,0.2,0.3,0.4,0.3c0.1,0,0.1,0,0.2,0c0.2-0.1,0.3-0.3,0.2-0.6l-0.3-0.9
			c-0.1-0.2-0.3-0.3-0.6-0.2c-0.2,0.1-0.3,0.3-0.2,0.6L22.9,2.1z"/>
		<path class="st2" d="M27.8,12.3l-0.7-1.8c-0.1-0.2-0.3-0.3-0.6-0.2c-0.2,0.1-0.3,0.3-0.2,0.6l0.7,1.8c0.1,0.2,0.2,0.3,0.4,0.3
			c0.1,0,0.1,0,0.2,0C27.8,12.7,27.9,12.5,27.8,12.3z"/>
		<path class="st2" d="M30.5,19.3l-0.7-1.8c-0.1-0.2-0.3-0.3-0.6-0.2c-0.2,0.1-0.3,0.3-0.2,0.6l0.7,1.8c0.1,0.2,0.2,0.3,0.4,0.3
			c0.1,0,0.1,0,0.2,0C30.5,19.7,30.6,19.5,30.5,19.3z"/>
		<path class="st2" d="M25.1,5.3l-0.7-1.8c-0.1-0.2-0.3-0.3-0.6-0.2c-0.2,0.1-0.3,0.3-0.2,0.6l0.7,1.8c0.1,0.2,0.2,0.3,0.4,0.3
			c0.1,0,0.1,0,0.2,0C25.1,5.7,25.2,5.5,25.1,5.3z"/>
		<path class="st2" d="M29.2,15.8L28.5,14c-0.1-0.2-0.3-0.3-0.6-0.2c-0.2,0.1-0.3,0.3-0.2,0.6l0.7,1.8c0.1,0.2,0.2,0.3,0.4,0.3
			c0.1,0,0.1,0,0.2,0C29.1,16.2,29.2,16,29.2,15.8z"/>
		<path class="st2" d="M26.4,8.8L25.8,7c-0.1-0.2-0.3-0.3-0.6-0.2C25,6.9,24.9,7.1,25,7.3l0.7,1.8c0.1,0.2,0.2,0.3,0.4,0.3
			c0.1,0,0.1,0,0.2,0C26.4,9.2,26.5,9,26.4,8.8z"/>
		<path class="st2" d="M31.2,21c-0.1-0.2-0.3-0.3-0.6-0.2c-0.2,0.1-0.3,0.3-0.2,0.6l0.3,0.9c0.1,0.2,0.2,0.3,0.4,0.3
			c0.1,0,0.1,0,0.2,0c0.2-0.1,0.3-0.3,0.2-0.6L31.2,21z"/>
		<path class="st2" d="M49.3,2.7H33.7c-0.9,0-1.7,0.8-1.7,1.7v14.3c0,0.5,0.4,0.9,0.9,0.9s0.9-0.4,0.9-0.9v-10h15.2v10
			c0,0.5,0.4,0.9,0.9,0.9c0.5,0,0.9-0.4,0.9-0.9V4.4C51,3.5,50.2,2.7,49.3,2.7z M49.1,8H33.9V7.6h15.2V8z M49.1,6.9H33.9V6.6h15.2
			V6.9z M49.1,5.8H33.9V5.5h15.2V5.8z"/>
		<path class="st2" d="M45.8,16.4c0-0.1,0-0.2-0.1-0.2l0,0c0,0,0,0,0,0c0,0,0-0.1-0.1-0.1c0,0,0,0,0,0c0,0-0.1,0-0.1-0.1
			c0,0,0,0,0,0c0,0-0.1,0-0.1,0c0,0-0.1,0-0.1,0h0l-0.8-0.9c0.2-0.3,0.3-0.6,0.2-1l-0.1-0.4c-0.1-0.2-0.3-0.4-0.5-0.4h-0.9l-0.3-0.8
			c-0.1-0.2-0.3-0.4-0.5-0.4H42l0.8-0.5c0,0.1,0.2,0.2,0.3,0.2h0.7c0.2,0,0.3-0.1,0.3-0.3v-0.3c0-0.2-0.1-0.3-0.3-0.3h-0.7
			c-0.2,0-0.3,0.1-0.3,0.3v0.1l-1.3,0.8l-1.3-0.8v-0.1c0-0.2-0.1-0.3-0.3-0.3h-0.7c-0.2,0-0.3,0.1-0.3,0.3v0.3
			c0,0.2,0.1,0.3,0.3,0.3h0.7c0.1,0,0.2-0.1,0.3-0.2l0.8,0.5h-0.3c-0.2,0-0.5,0.2-0.5,0.4l-0.3,0.8h-0.9c-0.2,0-0.5,0.2-0.5,0.4
			l-0.1,0.4c-0.1,0.3-0.1,0.7,0.2,1l-0.7,0.8h-0.1c0,0-0.1,0-0.1,0c0,0,0,0,0,0c0,0,0,0-0.1,0c0,0,0,0-0.1,0c0,0,0,0,0,0
			c0,0,0,0,0,0c0,0,0,0,0,0c0,0,0,0,0,0.1c0,0,0,0,0,0c0,0,0,0,0,0l0,0c0,0.1,0,0.1,0,0.2v0.1l0,0v0.7l0,0v0.3v0.6v0.3v0.8v0
			c0,0.2,0.2,0.4,0.4,0.4h0h1.1h0c0.2,0,0.4-0.2,0.4-0.4v-0.7l1.6-0.6c0.2,0.2,0.4,0.3,0.7,0.3c0.3,0,0.5-0.1,0.7-0.3l1.6,0.6v0.7
			c0,0.2,0.2,0.4,0.4,0.4h0h1.1h0c0.2,0,0.4-0.2,0.4-0.4v0c0,0,0,0,0,0v-2.1h0L45.8,16.4L45.8,16.4L45.8,16.4z M40.4,12.7
			c0-0.1,0.2-0.2,0.3-0.2h0.8c0,0,0,0,0,0c0,0,0,0,0,0c0,0,0,0,0,0h0h0c0,0,0,0,0,0c0,0,0,0,0,0c0,0,0,0,0,0h0.8
			c0.1,0,0.2,0.1,0.3,0.2l0.3,0.7h-2.8L40.4,12.7z M39.2,18.5L39.2,18.5l0-0.3l0,0V18.5z M40.5,17.1l-1.3,0.4l0,0v-0.4v-0.7v-0.1
			c0-0.1,0-0.2-0.1-0.2l0,0c0,0,0,0,0,0c0,0,0,0,0,0c0,0,0,0,0,0c0,0,0,0,0,0c0,0,0,0,0,0c0,0,0,0,0,0c0,0,0,0,0,0c0,0,0,0-0.1,0
			l0.2-0.2l0.9,0.9c0.1,0.1,0.3,0.2,0.4,0.2h0.2C40.5,16.9,40.5,17,40.5,17.1z M40,15.4c-0.2,0-0.4-0.2-0.4-0.4v-0.4
			c0-0.2,0.2-0.4,0.4-0.4h0.7c0.2,0,0.4,0.2,0.4,0.4V15c0,0.2-0.2,0.4-0.4,0.4H40z M42.2,17.2C42.2,17.3,42.2,17.3,42.2,17.2
			c0,0.1,0,0.1,0,0.1c0,0,0,0.1,0,0.1c0,0,0,0,0,0c0,0,0,0,0,0.1c0,0,0,0,0,0.1c-0.1,0.2-0.3,0.3-0.6,0.3c-0.2,0-0.4-0.1-0.6-0.3
			c0,0,0,0,0,0c0,0,0-0.1,0-0.1c0,0,0,0,0,0c0,0,0-0.1,0-0.1c0,0,0,0,0,0c0,0,0-0.1,0-0.1l0,0c0-0.2,0.1-0.4,0.2-0.5c0,0,0,0,0,0
			c0,0,0.1,0,0.1-0.1c0,0,0,0,0,0c0,0,0.1,0,0.1-0.1c0,0,0,0,0,0c0,0,0.1,0,0.1,0c0,0,0,0,0,0c0,0,0.1,0,0.1,0c0,0,0.1,0,0.1,0
			c0,0,0,0,0,0c0,0,0.1,0,0.1,0c0,0,0,0,0,0c0,0,0.1,0,0.1,0.1c0,0,0,0,0,0c0,0,0.1,0,0.1,0.1c0,0,0,0,0,0
			C42.1,16.9,42.2,17,42.2,17.2L42.2,17.2z M41.9,15v-0.4c0-0.2,0.2-0.4,0.4-0.4H43c0.2,0,0.4,0.2,0.4,0.4V15c0,0.2-0.2,0.4-0.4,0.4
			h-0.7C42.1,15.4,41.9,15.2,41.9,15z M43.8,18.5L43.8,18.5l0-0.3l0,0V18.5z M44.1,16C44.1,16,44.1,16,44.1,16C44,16,44,16,44.1,16
			C44,16,44,16,44,16c0,0,0,0,0,0c0,0,0,0,0,0c0,0,0,0,0,0c0,0,0,0,0,0c0,0,0,0,0,0l0,0c0,0.1,0,0.1,0,0.2v0.1h0v0.7h0v0.4l0,0
			l-1.3-0.4c0-0.1,0-0.2-0.1-0.4h0.2c0.2,0,0.3-0.1,0.4-0.2l0.9-0.9L44.1,16C44.1,16,44.1,16,44.1,16z"/>
		<path class="st2" d="M40.7,14.5H40c0,0-0.1,0-0.1,0.1V15c0,0,0,0.1,0.1,0.1h0.7c0,0,0.1,0,0.1-0.1L40.7,14.5
			C40.8,14.5,40.7,14.5,40.7,14.5z"/>
		<path class="st2" d="M43.1,15v-0.4c0,0,0-0.1-0.1-0.1h-0.7c0,0-0.1,0-0.1,0.1V15c0,0,0,0.1,0.1,0.1L43.1,15
			C43,15.1,43.1,15,43.1,15z"/>
	</g>
	<path id="step1_x5F_quad" class="st3" d="M47.2,11.2c0-0.1,0-0.2,0-0.3c0,0,0,0,0,0c-0.1-2.1-0.7-4.1-1.6-5.6c0,0,0,0,0,0
		c-0.1-0.1-0.1-0.2-0.2-0.3c0,0,0-0.1-0.1-0.1c0-0.1-0.1-0.1-0.1-0.2c0-0.1-0.1-0.1-0.1-0.2c0,0-0.1-0.1-0.1-0.1
		c-0.1-0.1-0.1-0.1-0.2-0.2c0,0,0,0,0,0c-1-1.2-2.4-2-3.8-2.1c0,0,0,0-0.1,0c0,0,0,0-0.1,0c-0.1,0-0.2,0-0.2,0h-4.4
		c-1.5,0-2.8,0.7-3.9,1.8c-1-1-2.1-1.6-3.4-1.7c0,0,0,0-0.1,0c0,0,0,0-0.1,0c-0.1,0-0.2,0-0.2,0h-4.4c-1.4,0-2.8,0.7-3.8,1.8
		c-1-1.1-2.2-1.8-3.6-1.9c0,0,0,0-0.1,0c0,0,0,0-0.1,0c-0.1,0-0.2,0-0.2,0H12c-1.6,0-3,0.8-4.2,2.2c0,0-0.1,0.1-0.1,0.1c0,0,0,0,0,0
		c0,0-0.1,0.1-0.1,0.1c-1.4,1.7-2.2,4.3-2.2,7.1c0,0.4,0,0.8,0.1,1.2c0,0,0,0,0,0c0.2,2.4,1,4.5,2.3,6c0,0,0,0,0,0
		c0.6,0.7,1.2,1.2,1.9,1.6c0,0,0,0,0,0c0.7,0.4,1.5,0.6,2.4,0.6h4.4c0.1,0,0.2,0,0.3,0c0,0,0.1,0,0.1,0c1.3-0.1,2.5-0.7,3.5-1.8
		c0.5,0.5,1,0.9,1.6,1.3c0,0,0,0,0,0c0.7,0.4,1.5,0.6,2.4,0.6h4.4c0.1,0,0.2,0,0.3,0c0,0,0.1,0,0.1,0c1.3-0.1,2.5-0.8,3.6-1.8
		c1.1,1.1,2.4,1.7,3.8,1.7h4.4c0.1,0,0.2,0,0.3,0c0,0,0.1,0,0.1,0c3-0.3,5.5-3.3,6.1-7.6c0,0,0-0.1,0-0.1c0.1-0.6,0.1-1.1,0.1-1.7
		v-0.1C47.2,11.3,47.2,11.2,47.2,11.2z M23.5,2.8c0.2,0,0.4,0,0.6,0h0.7H27c-0.6,0.4-1.2,0.9-1.6,1.5l-1.1-0.6c-0.1,0-0.2,0-0.3,0
		l-0.8,0.5l-0.8-0.5c-0.1-0.1-0.2-0.1-0.3-0.1L21.1,4C21.8,3.4,22.6,2.9,23.5,2.8z M25.4,11.1C25.4,11.1,25.4,11.1,25.4,11.1
		L25.4,11.1L25.4,11.1z M21.9,15.7c-0.1-0.1-0.3-0.1-0.4,0l-0.7,0.7L20,15.7c-0.1-0.1-0.3-0.1-0.4,0l-0.5,0.5c0,0,0-0.1,0-0.1l0,0
		c-0.2-0.4-0.3-0.9-0.5-1.4c0.1,0,0.1-0.1,0.2-0.1l0.4-0.6l0.7,0.7c0.1,0.1,0.3,0.1,0.4,0l0.7-0.7l0.8,0.8c0.1,0.1,0.3,0.1,0.4,0
		l0.8-0.8l0.5,0.5c0.1,0.6,0.3,1.1,0.4,1.6l-0.6-0.3c-0.2-0.1-0.3,0-0.4,0.1l-0.4,0.6L21.9,15.7z M19,12.1c0.1,0.1,0.3,0,0.4-0.1
		l0.7-0.7l0.8,0.7c0.1,0.1,0.3,0.1,0.4,0l0.8-0.8l1.2,0.7c0,0.5,0,0.9,0.1,1.3l-0.2-0.2c-0.1-0.1-0.3-0.1-0.4,0L22,13.9l-0.7-0.7
		c-0.1-0.1-0.3-0.1-0.4,0l-0.7,0.7l-0.7-0.7c-0.1-0.1-0.2-0.1-0.3-0.1s-0.2,0.1-0.3,0.1l-0.4,0.7c-0.1-0.7-0.2-1.4-0.2-2.2L19,12.1z
		 M18.2,11c0-0.5,0.1-0.9,0.1-1.4c0,0,0.1,0,0.1-0.1l0.7-0.7l0.7,0.7c0.1,0.1,0.3,0.1,0.4,0L21,8.8l0.7,0.7c0.1,0.1,0.3,0.1,0.4,0
		l0.7-0.7l0.4,0.4c0,0,0.1,0,0.1,0.1c-0.1,0.7-0.2,1.3-0.2,2l-1.1-0.7c-0.1-0.1-0.3,0-0.4,0.1L21,11.4l-0.7-0.7
		c-0.1-0.1-0.3-0.1-0.4,0l-0.8,0.8L18.2,11z M23.5,8.6l-0.4-0.4c-0.1-0.1-0.3-0.1-0.4,0L22,8.9l-0.7-0.7c-0.1-0.1-0.3-0.1-0.4,0
		l-0.7,0.7l-0.7-0.7c-0.1-0.1-0.1-0.1-0.2-0.1c-0.1,0-0.2,0-0.2,0.1l-0.4,0.4c0.1-0.6,0.3-1.2,0.6-1.7l0,0c0-0.1,0.1-0.2,0.1-0.2
		l0.7,0.5c0.1,0.1,0.3,0.1,0.3,0L21,6.6l0.8,0.5c0.1,0.1,0.3,0.1,0.3,0l0.8-0.5l1,0.5C23.8,7.5,23.6,8.1,23.5,8.6z M23,5.9
		c-0.1,0-0.2,0-0.3,0l-0.8,0.5L21.2,6c-0.1-0.1-0.3-0.1-0.3,0l-0.8,0.5l-0.6-0.4c0.2-0.4,0.5-0.8,0.7-1.1L21,4.7v0l1.2-0.4L23,4.9
		c0.1,0.1,0.3,0.1,0.3,0l0.8-0.5L25,4.8c-0.3,0.5-0.6,1.1-0.9,1.7L23,5.9z M10.1,19.8C10.1,19.8,10.1,19.8,10.1,19.8
		c-0.2-0.1-0.5-0.3-0.7-0.4C9.2,19.2,9.1,19.1,9,19l0,0c-0.2-0.1-0.3-0.3-0.4-0.4l0,0c-0.3-0.4-0.6-0.8-0.9-1.2
		c-0.3-0.5-0.6-1-0.7-1.4c-0.6-1.6-1.3-4.5-0.5-7.5c0,0,0,0,0,0l0,0c0.1-0.5,0.3-1,0.5-1.5c0.9-2.3,2-3.3,3.1-3.8
		C10,3.1,10.1,3,10.3,3C9,4.3,7.6,6.8,7.2,9.7c-0.4,2.3-0.4,6.6,3.1,10.1C10.2,19.8,10.1,19.8,10.1,19.8z M11.7,20.2
		c-0.1,0-0.3,0-0.4,0c-4-3.6-4-8-3.6-10.4c0.5-3.4,2.3-6.3,3.8-7.1c0.2,0,0.3,0,0.5,0h0.6c0.1,0,0.3,0,0.4,0c-1.4,1.2-3,3.9-3.5,7.1
		c-0.4,2.4-0.4,6.9,3.5,10.6C12.6,20.3,12.2,20.3,11.7,20.2z M14.8,20.2c0,0-0.4,0.1-1,0.1c-4.2-3.6-4.2-8.1-3.8-10.5
		c0.5-3.5,2.4-6.5,3.9-7.2c0.4,0,0.7,0,0.8,0h0.2c0,0-0.1,0.1-0.1,0.1C14.2,3,13.2,4,12.2,5.9c-1,2-1.4,4.6-1.1,7.5
		c0.1,0.5,0.1,1,0.3,1.5c0.1,0.3,0.2,0.6,0.2,0.8l0,0c0.4,1.3,1.2,2.7,2.9,4.2C14.7,20.1,14.7,20.1,14.8,20.2L14.8,20.2z M13.2,10.9
		C13.2,10.9,13.2,10.9,13.2,10.9L13.2,10.9L13.2,10.9z M17,17.7c-1.7,0-3.1-2.9-3.1-6.3c0-1.1,0.2-2.2,0.4-3.1l0.1-0.2l0.2-0.6
		C15.1,6.1,16,5.1,17,5.1c0.2,0,0.3,0,0.5,0.1l0.1,0c0,0,0,0,0,0l0.1,0c0.4,0.2,0.7,0.5,1.1,0.9c-0.7,1.5-1.2,3.3-1.2,5.3
		c0,0.4,0,0.8,0.1,1.2c0,0,0,0,0,0c0.1,1.4,0.5,2.8,1,3.9C18.2,17.3,17.6,17.7,17,17.7z M20.6,18.6L20.6,18.6
		c-0.1-0.1-0.1-0.1-0.2-0.2c0,0,0,0,0,0c-0.1-0.1-0.1-0.1-0.2-0.2c0,0,0,0,0,0c-0.1-0.1-0.1-0.1-0.2-0.2c0,0,0,0,0,0
		c0-0.1-0.1-0.1-0.1-0.2c0,0,0,0,0-0.1c0-0.1-0.1-0.1-0.1-0.2c0,0,0-0.1-0.1-0.1c0-0.1-0.1-0.1-0.1-0.2c0,0-0.1-0.1-0.1-0.1
		c0,0,0-0.1-0.1-0.1c0-0.1-0.1-0.2-0.1-0.3l0.4-0.4l0.7,0.7c0.1,0.1,0.3,0.1,0.4,0l0.7-0.7l0.7,0.7c0.1,0.1,0.1,0.1,0.2,0.1
		c0.1,0,0.2-0.1,0.3-0.2l0.5-0.7l0.9,0.5c0.2,0.6,0.5,1.1,0.8,1.5l-0.6,0.4l-0.8-0.5c-0.1-0.1-0.3-0.1-0.3,0l-0.8,0.5l-0.8-0.5
		c-0.1-0.1-0.3-0.1-0.3,0l-0.8,0.5C20.7,18.7,20.6,18.6,20.6,18.6z M24.1,20.3c-1.1,0-2.1-0.4-3-1.2l0.5-0.3l0.8,0.5
		c0.1,0.1,0.3,0.1,0.3,0l0.8-0.5l0.7,0.5c0.1,0.1,0.3,0.1,0.3,0l0.8-0.5c0.5,0.6,1,1.1,1.6,1.5H24.1z M29.2,17.8
		c-1.7,0-3.1-2.9-3.1-6.3c0-1.1,0.2-2.2,0.4-3.1l0.1-0.2l0.2-0.6c0.6-1.5,1.5-2.4,2.4-2.4c0.2,0,0.3,0,0.5,0.1l0.1,0c0,0,0,0,0,0
		l0.1,0c0.3,0.1,0.6,0.4,0.9,0.7c-0.7,1.5-1.1,3.3-1.1,5.3c0,2,0.4,3.9,1.2,5.4C30.3,17.5,29.8,17.8,29.2,17.8z M39,20.2
		c0,0-1.5,0.2-3,0c-0.6,0-1.1-0.2-1.7-0.4c0,0,0,0,0,0c-0.2-0.1-0.5-0.3-0.7-0.4c-0.1-0.1-0.3-0.2-0.4-0.3l0,0
		c-0.2-0.1-0.3-0.3-0.4-0.4l0,0c-0.3-0.4-0.6-0.8-0.9-1.2c-0.3-0.5-0.6-1-0.7-1.4c-0.6-1.6-1.3-4.5-0.5-7.5c0,0,0,0,0,0l0,0
		c0.1-0.5,0.3-1,0.5-1.5c0.9-2.3,2-3.3,3.1-3.8c0.6-0.4,1.3-0.6,2.1-0.6h0.6c0.9,0,1.9-0.1,2.1,0h0.2c0,0-0.1,0.1-0.1,0.1
		C38.5,3,37.5,4,36.5,5.9c-1,2-1.4,4.6-1.1,7.5c0.1,0.5,0.1,1,0.3,1.5c0.1,0.3,0.2,0.6,0.2,0.8l0,0c0.4,1.3,1.2,2.7,2.9,4.2
		C38.9,20.1,39,20.1,39,20.2L39,20.2z M37.5,10.9C37.5,10.9,37.5,10.9,37.5,10.9L37.5,10.9L37.5,10.9z M43.6,16.8L43.6,16.8
		C43.6,16.9,43.6,16.8,43.6,16.8L43.6,16.8z M41.2,17.7c-1.7,0-3.1-2.9-3.1-6.3c0-1.1,0.2-2.2,0.4-3.1l0.1-0.2l0.2-0.6
		c0.6-1.5,1.5-2.4,2.4-2.4c0.2,0,0.3,0,0.5,0.1l0.1,0c0,0,0,0,0,0l0.1,0c1.4,0.6,2.5,3.2,2.5,6.1C44.4,14.8,42.9,17.7,41.2,17.7z
		 M44.9,9.5C44.9,9.5,44.9,9.5,44.9,9.5L44.9,9.5L44.9,9.5z"/>
</g>
<g id="FARM" class="st0">
	<g id="step3_x5F_farm" class="st1">
		<path class="st2" d="M23.6,17.2v0.4h-0.3l-3.5-2.8h0.6v-1h-2.5v1h0.6l-3.3,2.8h-0.5v-0.4h-0.8v1.5h0.8v-0.4h0.5l3,2.2h-1v0.8h2.1
			l0,0l0,0h2v-0.8h-1l2.9-2.2h0.3v0.4h0.8v-1.5H23.6z M19.3,20.4l-2.7-2h5.4L19.3,20.4z M16.4,17.6l2.7-2.3l2.9,2.3H16.4z"/>
		<path class="st2" d="M25.5,14.7v-0.4c-0.4-0.6-0.7-1.3-1-1.9c-0.4-0.8-0.6-1.7-0.7-2.6h-0.6c-0.3,0-0.5,0.2-0.5,0.5v0.2h-0.1v1.1
			h0.1V12h-0.1v0.3h-0.5V9.2h1.7c0,0,0-0.1,0-0.1c0-0.5,0-0.9,0.1-1.4h-1.8V3c0-0.3-0.2-0.5-0.5-0.5h-4.9c-0.3,0-0.5,0.2-0.5,0.5
			v4.7h-0.9V2.9c0-0.3-0.2-0.5-0.5-0.5h-1.3v1.1h0.8v4.2h-0.7c-0.3,0-0.5,0.2-0.5,0.5v0.4c0,0.3,0.2,0.5,0.5,0.5h2.7v3.2h-0.5V12
			h-0.1v-0.4h0.1v-1.1h-0.1v-0.2c0-0.3-0.2-0.5-0.5-0.5h-1.5c-0.3,0-0.5,0.2-0.5,0.5v0.2h-0.1v1.1h0.1V12h-0.1v1.1h0.1v0.4h-0.1v1.1
			h0.1v0.4h-0.1v1.1h0.1v0.1c0,0.3,0.2,0.5,0.5,0.5H15c0.3,0,0.5-0.2,0.5-0.5v-0.1h0.1v-1.1h-0.1v-0.4h0.1v-0.8h7v0.8h0.1v0.4h-0.1
			v1.1h0.1v0.1c0,0.3,0.2,0.5,0.5,0.5h1.5c0.3,0,0.5-0.2,0.5-0.5v-0.1h0.1v-1.1h-0.1v-0.4H25.5z M17.2,3.5H21v3.7h-3.8V3.5z
			 M17.6,11.5c-0.1,0-0.2,0-0.3-0.1c-0.3-0.1-0.4-0.4-0.4-0.7c0-0.3,0.2-0.6,0.4-0.7c0.1-0.1,0.2-0.1,0.3-0.1c0.4,0,0.8,0.4,0.8,0.8
			C18.3,11.2,18,11.5,17.6,11.5z M21,11.4c-0.1,0.1-0.2,0.1-0.3,0.1c-0.4,0-0.8-0.4-0.8-0.8c0-0.4,0.4-0.8,0.8-0.8
			c0.1,0,0.2,0,0.3,0.1c0.3,0.1,0.4,0.4,0.4,0.7C21.5,11,21.3,11.3,21,11.4z"/>
		<g>
			<path class="st2" d="M34,8l-0.3-0.8l1-1.2c-0.5-0.1-1.1,0.1-1.5,0.5c-0.4,0.5-0.5,1.1-0.2,1.7c0,0,0,0,0,0l-1,1.1l0.9,0.9L34,8.9
				c0,0,0,0,0,0c0.6,0.2,1.2,0,1.6-0.5c0.4-0.4,0.5-1,0.3-1.5l-1,1.2L34,8z"/>
			<path class="st2" d="M29.5,12.1c-0.2,0.2-0.2,0.6,0.1,0.8l0.1,0.1c0.2,0.2,0.6,0.2,0.8-0.1l1.3-1.6L31,10.5L29.5,12.1z"/>
			<path class="st2" d="M32.8,10.3l-0.9-0.9l-1.1-1.2c0,0,0,0,0,0c0,0,0-0.1,0-0.1c0,0,0-0.1,0-0.1c0.2-0.5,0-1.1-0.3-1.5
				C30.1,6,29.5,5.9,29,6l1.1,1.2L29.8,8l-0.9,0.2l-1.1-1.2c-0.2,0.5,0,1.1,0.3,1.5c0.4,0.4,1,0.6,1.5,0.5c0,0,0.1,0,0.1,0
				c0,0,0.1,0,0.1,0c0,0,0,0,0,0l1.2,1.4l0.9,0.9l1.5,1.6c0.1,0.1,0.3,0.2,0.4,0.2c0.1,0,0.3-0.1,0.4-0.2l0.1-0.1
				c0.2-0.2,0.3-0.6,0-0.8L32.8,10.3z"/>
			<path class="st2" d="M31.9,2.2c-3.9,0-7.1,3.2-7.1,7.1c0,1,0.2,2,0.6,2.9c1.8,3.9,5.1,7.9,6.1,9.1c0.1,0.1,0.2,0.1,0.3,0.1
				c0.1,0,0.2,0,0.3-0.1c1-1.2,4.4-5.2,6.1-9.1c0.4-0.9,0.6-1.9,0.6-2.9C39,5.4,35.8,2.2,31.9,2.2z M31.9,14.7c-3,0-5.5-2.5-5.5-5.5
				c0-3,2.5-5.5,5.5-5.5s5.5,2.5,5.5,5.5C37.4,12.2,35,14.7,31.9,14.7z"/>
		</g>
	</g>
	<g id="step2_x5F_farm" class="st1">
		<g>
			<g>
				<path class="st2" d="M23.7,15.3C23.7,15.3,23.7,15.3,23.7,15.3l0-6.1c0-0.9-0.7-1.6-1.6-1.6c0,0-14-0.4-15.1,0.1
					c-0.9,0.4-2.5,1.7-3.8,2.8c-0.4,0.3-0.8,0.7-1.4,1.1c-0.4,0.3-0.8,0.7-0.8,1.3v1.9c0,0.3,0,0.5-0.1,0.6
					c-0.2,0.1-0.3,0.3-0.3,0.6l0.3,1.8c0,0.3,0.3,0.4,0.5,0.4h0.8c0.1,0,0.1,0,0.1,0.1c0.3,1,1.2,1.7,2.3,1.7c1.1,0,2-0.7,2.3-1.7
					c0-0.1,0.1-0.1,0.1-0.1h9.6c0.1,0,0.1,0,0.1,0.1c0.3,1,1.2,1.7,2.3,1.7c1.1,0,2-0.7,2.3-1.7c0-0.1,0.1-0.1,0.1-0.1h2.2
					c0.1,0,0.1-0.1,0.1-0.1v-2.2C23.8,15.6,23.7,15.4,23.7,15.3z M4.7,18.9c-1,0-1.7-1.1-1.1-2.1c0.1-0.1,0.2-0.2,0.3-0.3
					C5,15.9,6,16.6,6,17.6C6,18.3,5.4,18.9,4.7,18.9L4.7,18.9z M10.3,11.4c0,0.5-0.4,0.8-0.8,0.8h-5c-0.2,0-0.3-0.3-0.2-0.4l2.6-2.2
					c0.4-0.3,0.8-0.5,1.3-0.5h1.6c0.3,0,0.5,0.2,0.5,0.5V11.4z M15.6,15.1C15.6,15.1,15.5,15.1,15.6,15.1c-0.3,0.2-0.7,0.1-0.9-0.1
					c-0.2-0.2-0.2-0.7,0-0.9l2.2-2.2c0,0,0-0.1,0-0.1c-0.2-0.6-0.1-1.3,0.4-1.7c0.3-0.3,0.8-0.5,1.3-0.5c0.1,0,0.2,0.1,0.2,0.2
					c0,0.1,0,0.2-0.1,0.3l-0.7,0.7c0,0,0,0.1,0,0.1c0,0,0,0.1,0,0.1l0.8,0.8c0,0,0.1,0,0.1,0c0,0,0.1,0,0.1,0l0.7-0.7
					c0.1-0.1,0.2-0.1,0.3-0.1c0.1,0,0.2,0.1,0.2,0.2c0,0.5-0.2,0.9-0.5,1.3c-0.3,0.3-0.7,0.5-1.2,0.5c-0.2,0-0.4,0-0.6-0.1
					c0,0-0.1,0-0.1,0L15.6,15.1z M19.1,18.9c-1,0-1.7-1.1-1.1-2.1c0.1-0.1,0.2-0.2,0.3-0.3c1-0.6,2.1,0.1,2.1,1.1
					C20.4,18.3,19.8,18.9,19.1,18.9L19.1,18.9z M19.1,18.9"/>
			</g>
		</g>
		<g>
			<path class="st2" d="M23.3,2.6c-0.2,0-0.3-0.1-0.4-0.3l-0.3-0.9c-0.1-0.2,0-0.5,0.2-0.6c0.2-0.1,0.5,0,0.6,0.2L23.7,2
				c0.1,0.2,0,0.5-0.2,0.6C23.4,2.6,23.4,2.6,23.3,2.6z"/>
			<path class="st2" d="M30.1,20.1c-0.2,0-0.3-0.1-0.4-0.3L29,18.1c-0.1-0.2,0-0.5,0.2-0.6c0.2-0.1,0.5,0,0.6,0.2l0.7,1.8
				c0.1,0.2,0,0.5-0.2,0.6C30.2,20.1,30.2,20.1,30.1,20.1z M28.8,16.6c-0.2,0-0.3-0.1-0.4-0.3l-0.7-1.8c-0.1-0.2,0-0.5,0.2-0.6
				c0.2-0.1,0.5,0,0.6,0.2l0.7,1.8c0.1,0.2,0,0.5-0.2,0.6C28.9,16.6,28.8,16.6,28.8,16.6z M27.4,13.1c-0.2,0-0.3-0.1-0.4-0.3
				l-0.7-1.8c-0.1-0.2,0-0.5,0.2-0.6c0.2-0.1,0.5,0,0.6,0.2l0.7,1.8c0.1,0.2,0,0.5-0.2,0.6C27.5,13.1,27.4,13.1,27.4,13.1z M26,9.6
				c-0.2,0-0.3-0.1-0.4-0.3L25,7.6c-0.1-0.2,0-0.5,0.2-0.6c0.2-0.1,0.5,0,0.6,0.2L26.4,9c0.1,0.2,0,0.5-0.2,0.6
				C26.1,9.6,26.1,9.6,26,9.6z M24.7,6.1c-0.2,0-0.3-0.1-0.4-0.3L23.6,4c-0.1-0.2,0-0.5,0.2-0.6c0.2-0.1,0.5,0,0.6,0.2l0.7,1.8
				C25.2,5.7,25,6,24.8,6C24.8,6.1,24.7,6.1,24.7,6.1z"/>
			<path class="st2" d="M31.1,22.7c-0.2,0-0.3-0.1-0.4-0.3l-0.3-0.9c-0.1-0.2,0-0.5,0.2-0.6c0.2-0.1,0.5,0,0.6,0.2l0.3,0.9
				c0.1,0.2,0,0.5-0.2,0.6C31.2,22.7,31.2,22.7,31.1,22.7z"/>
		</g>
		<g>
			<path class="st2" d="M46.1,16.2v-0.8H46v-0.1c0-0.2-0.2-0.4-0.4-0.4h-1.1c-0.2,0-0.4,0.2-0.4,0.4v0.1H44v0.8h0.1v0.3H44v0.2h-0.3
				v-2.3h1.9c0.2,0,0.4-0.2,0.4-0.4v-0.3c0-0.2-0.2-0.4-0.4-0.4h-1.9v-3.3c0-0.2-0.2-0.4-0.4-0.4h-3.5c-0.2,0-0.4,0.2-0.4,0.4v3.3
				h-0.7V10c0-0.2-0.2-0.4-0.4-0.4h-0.9v0.8h0.6v3h-0.5c-0.2,0-0.4,0.2-0.4,0.4v0.3c0,0.2,0.2,0.4,0.4,0.4h1.9v2.3H39v-0.2h-0.1
				v-0.3H39v-0.8h-0.1v-0.1c0-0.2-0.2-0.4-0.4-0.4h-1.1c-0.2,0-0.4,0.2-0.4,0.4v0.1H37v0.8H37v0.3H37v0.8H37v0.3H37v0.8H37v0.3H37
				v0.8H37v0.1c0,0.2,0.2,0.4,0.4,0.4h1.1c0.2,0,0.4-0.2,0.4-0.4v-0.1H39v-0.8h-0.1v-0.3H39v-0.6h5v0.6h0.1v0.3H44v0.8h0.1v0.1
				c0,0.2,0.2,0.4,0.4,0.4h1.1c0.2,0,0.4-0.2,0.4-0.4v-0.1h0.1v-0.8H46v-0.3h0.1v-0.8H46v-0.3h0.1v-0.8H46L46.1,16.2L46.1,16.2z
				 M40.1,10.5h2.7v2.7h-2.7V10.5z M40.4,16.2c-0.1,0-0.2,0-0.2-0.1c-0.2-0.1-0.3-0.3-0.3-0.5c0-0.2,0.1-0.4,0.3-0.5
				c0.1,0,0.2-0.1,0.2-0.1c0.3,0,0.6,0.3,0.6,0.6C40.9,15.9,40.7,16.2,40.4,16.2z M42.9,16.1c-0.1,0-0.2,0.1-0.2,0.1
				c-0.3,0-0.6-0.3-0.6-0.6c0-0.3,0.3-0.6,0.6-0.6c0.1,0,0.2,0,0.2,0.1c0.2,0.1,0.3,0.3,0.3,0.5C43.2,15.8,43.1,16,42.9,16.1z"/>
			<g>
				<path class="st2" d="M49.3,3H33.7C32.8,3,32,3.7,32,4.7V19c0,0.5,0.4,0.9,0.9,0.9c0.5,0,0.9-0.4,0.9-0.9V9h15.2v10
					c0,0.5,0.4,0.9,0.9,0.9c0.5,0,0.9-0.4,0.9-0.9V4.7C51,3.7,50.2,3,49.3,3L49.3,3z M33.9,6.8h15.2v0.3H33.9V6.8z M33.9,6.1V5.8
					h15.2v0.3H33.9z M33.9,8.2V7.9h15.2v0.3H33.9z M33.9,8.2"/>
			</g>
		</g>
	</g>
	<g id="step1_x5F_farm" class="st1">
		<path class="st2" d="M19.8,19.4l-0.1-0.5l-0.7-0.5l-0.2-0.3l0.1-0.8l-0.7-0.4l-0.1-0.7l0,0c-0.5,0.6-1,0.9-1.7,0.9
			c-1.6,0-3-2.4-3-5.3c0-2.9,1.3-5.3,3-5.3c0.8,0,1.5,0.5,2,1.4H19l-0.4-1.1V6l0.5-0.1h0.5V5.1l0.1-0.7l0.6,0c-0.9-1.2-2-2-3.1-2
			c-0.1,0-0.2,0-0.4,0h-4.2c-0.7,0-1.4,0.2-2,0.5c-4.7,2.4-5.7,7.7-4.6,11.9c0.9,3.6,3.3,6.1,6,6.3c0.1,0,0.1,0,0.2,0h5c0,0,0,0,0,0
			c1.1,0,2.1-0.6,2.9-1.6L19.8,19.4z M6.6,14.7c-1-4-0.1-9,4.2-11.2c0,0,0.1,0,0.1,0l-0.1,0l-0.2,1L9.2,4.9l0.2,1.5L7.7,7.2l0.7,1.2
			L7.2,9.6L8,11l-1,1.4l1.2,1.2L7.3,15l1.3,0.5L8.1,17l1.5,0.4l-0.4,1.4l1.8,0.4l0.1,1C9.1,19.8,7.4,17.7,6.6,14.7z M12,20.5
			c0,0-0.1,0-0.1,0c-0.1,0-0.2,0-0.2,0l-0.2-1.5l-1.7-0.4l0.4-1.4l-1.5-0.4l0.4-1.5L8,14.8l0.8-1.3l-1.1-1.2l1-1.3L7.8,9.6l1.3-1.2
			L8.4,7.4l1.5-0.7L9.7,5.3l1.4-0.4l0.2-1.1l1-0.6c0,0,0.1,0,0.1,0h1.2l-1.1,0.6l-0.3,1.3l-1.4,0.7l0.6,1.1L9.9,7.5l0.7,1.1L9.6,9.8
			l0.9,1.1l-1.2,1.2l1.2,1.2l-0.6,1l1.3,0.5l-0.7,1.2l1,0.6l-0.3,1.1l1.3,0.6l-0.3,1.3l1.3,0.7H12z M14.5,20.5l-1.6-0.9l0.3-1.3
			l-1.3-0.6l0.2-1.1L11.1,16l0.7-1.3l-1.2-0.5l0.5-0.9l-1.1-1.1l1.1-1.2l-0.9-1.1l1.1-1.1l-0.6-1L12,7.1L11.5,6l1.2-0.6L13,4.1
			l1.6-0.9h0.5C13.3,4.6,12,7.9,12,11.8c0,3.9,1.3,7.3,3.2,8.7H14.5z"/>
		<path class="st2" d="M30.2,17.6l0.5-0.7L29.5,16l0.8-1.3l-0.7-0.6c-0.4,1.4-1.2,2.4-2.1,2.4c-1.4,0-2.5-2.1-2.5-4.7
			c0-2.6,1.1-4.7,2.5-4.7c1,0,1.9,1.2,2.3,3l0,0l-0.3-1.4V7.5l1.4-0.7V6.2c-0.2-0.6-0.5-1.3-0.8-1.9l0,0c-0.6-1-1.6-1.7-3.3-2l0,0
			c-1.8-0.3-3.9,0-4.5,0.2c-0.4,0.1-0.7,0.2-0.8,0.4c-0.1,0.1-0.1,0.2-0.1,0.3c-0.1,0-0.2,0-0.3,0c0,0-0.1,0-0.1,0
			c-0.3,0.1-0.5,0.2-0.6,0.3c-0.1,0.1-0.1,0.4,0,0.6c-0.2,0-0.4,0.1-0.6,0.2c-0.2,0.2-0.4,0.4-0.5,0.5c0,0,0,0,0,0c0,0,0,0,0,0
			c0,0,0,0,0,0c0,0,0,0,0,0c-0.1,0.2,0,0.5,0.1,0.8c-0.1,0-0.1,0-0.2,0c-0.1,0-0.3,0-0.3,0.1c-0.2,0.2-0.4,0.4-0.4,0.7c0,0,0,0,0,0
			c0,0,0,0,0,0.1c-0.1,0.3,0.2,0.8,0.4,1.1c-0.1,0-0.1,0-0.2,0c-0.2,0-0.4,0.1-0.5,0.2c-0.2,0.2-0.3,0.5-0.3,0.7c0,0,0,0.1,0,0.1
			c0,0.2,0.2,0.4,0.4,0.5c0,0,0,0.2,0,0.3c0,0.1,0,0.2,0,0.3c-0.2,0-0.3-0.1-0.5,0c-0.1,0.2-0.2,0.8-0.1,1.1c0.2,0,0.3,0,0.5,0.1
			c0,0.2,0,0.9,0,1.3c-0.2-0.1-0.4-0.2-0.6-0.2c-0.1,0.2,0,0.8,0,1.2c0.2,0,0.4,0.1,0.6,0.2c0,0.1,0,0.1,0,0.2c0,0.1,0,0.2,0,0.3
			c-0.2,0.1-0.4,0.3-0.5,0.4c0,0.1,0,0.1,0,0.2c0,0.2,0.1,0.5,0.2,0.8c0,0.1,0.1,0.2,0.3,0.3c0.1,0.1,0.3,0.1,0.5,0.2
			c-0.2,0.2-0.5,0.4-0.5,0.7c0,0.1,0,0.1,0,0.2c0,0.2,0.2,0.4,0.3,0.7c0,0.1,0.1,0.1,0.2,0.2c0.1,0.1,0.2,0.1,0.4,0.2
			c-0.1,0.2-0.3,0.4-0.3,0.6c0,0.1,0,0.2,0.1,0.3c0.1,0.1,0.1,0.2,0.2,0.3c0,0.1,0.1,0.1,0.2,0.1c0.1,0.1,0.3,0.1,0.4,0.2
			c0,0.2-0.1,0.3,0,0.5c0,0.2,0.3,0.4,0.5,0.4c0.1,0.1,0.3,0.1,0.5,0.2c0,0.1,0,0.1,0,0.2c0.1,0.3,1.7,0.7,1.7,0.7l0,0
			c0.7,0.2,2.2,0.4,3.5,0.4c0.9,0,1.8-0.1,2.3-0.4l-0.1-0.1L28,21c0,0,0.1-0.1,0.1-0.1c0.4-0.3,1.1-0.7,1.8-1.6
			c0.2-0.3,0.4-0.6,0.5-1L30.2,17.6z M29.1,3.6c0.1,0.1,0.3,0.3,0.4,0.4l0,0.2C29.3,4,29.2,4,29.1,3.9V3.6z M28.7,3.3v0.4
			c-0.1,0-0.2-0.1-0.3-0.1l0-0.5C28.4,3.1,28.6,3.2,28.7,3.3z M27.8,2.8l0.1,0.7c-0.1,0-0.2,0-0.3,0l-0.2-0.8c0,0,0,0,0,0
			C27.5,2.7,27.6,2.8,27.8,2.8z M27,20.8c-0.1,0.1-0.3,0.2-0.7,0.3c-1.4,0.1-3.2-0.2-4-0.4l0,0c-0.4-0.1-1.3-0.4-1.4-0.5
			c0,0,0,0,0,0c0.7,0.2,1.4,0.4,1.6,0.4c0.1-0.1,0.3-0.1,0.4-0.2c-1-0.2-1.9-0.5-2.7-0.8l0,0c0,0,0,0,0,0c-0.1,0-0.2-0.1-0.2-0.1
			c-0.1,0-0.1-0.1-0.1-0.1c0-0.1,0-0.2,0-0.3c0.6,0.2,1.2,0.4,1.4,0.5c0.3-0.2,0.5-0.3,0.8-0.4c-1-0.2-2.1-0.6-2.9-0.9
			c0,0,0,0-0.1-0.1c-0.1-0.1-0.2-0.2-0.2-0.3c0-0.1,0.1-0.3,0.2-0.5c0.4,0.2,0.7,0.3,0.9,0.4c0.3-0.2,0.7-0.3,0.9-0.4
			c-0.5-0.2-1.8-0.7-2.6-1c0,0-0.1-0.1-0.1-0.1c0,0-0.1-0.1-0.1-0.2c0-0.2,0.3-0.4,0.5-0.6c0.4,0.2,0.7,0.3,0.8,0.4
			c0.3-0.2,0.8-0.4,1.1-0.5c-0.4-0.3-1.8-0.9-2.7-1.2c0,0,0,0,0,0c0-0.1,0-0.1,0-0.1c0,0,0.1-0.1,0.4-0.3l0,0
			c0.1-0.1,0.1-0.2,0.2-0.5c0,0,0,0,0-0.1c0.3,0.2,0.6,0.3,0.7,0.4c0.3-0.2,0.9-0.5,1.2-0.5c-0.3-0.1-1.1-0.6-1.9-0.9
			c-0.1-0.3,0-1,0-1.3c0.3,0.1,0.6,0.3,0.7,0.3c0.3-0.2,1-0.5,1.2-0.6c-0.2-0.2-1.1-0.7-1.8-1c0-0.1,0-0.3,0-0.4
			c0-0.2,0.1-0.4,0-0.5l0,0c-0.2-0.2-0.3-0.3-0.3-0.4c0,0,0,0,0,0c0.5,0.1,1.1,0.5,1.2,0.5c0.3-0.2,1.1-0.5,1.3-0.6
			c-0.1-0.2-0.7-0.5-1.3-0.7c-0.2-0.2-0.6-0.9-0.5-1.2c0,0,0-0.1,0.1-0.1c0,0,0,0,0,0c0.4,0.1,0.9,0.4,1,0.4
			c0.3-0.2,1.2-0.4,1.4-0.5c-0.3-0.1-0.9-0.4-1.5-0.6c-0.1-0.2-0.2-0.6-0.2-0.7c0-0.1,0.5-0.1,1,0l0,0C20.7,5,20.7,5,20.8,5
			c0.3-0.2,1.2-0.4,1.5-0.5c-0.3-0.1-0.9-0.3-1.5-0.4c-0.1-0.2-0.1-0.4-0.1-0.5c0-0.1,0.3-0.2,0.5-0.2c0.3,0,0.7,0.1,0.8,0.1
			c0.3-0.2,0.9-0.3,1.3-0.3c-0.3-0.1-0.9-0.2-1.5-0.2c0,0,0-0.1,0-0.1c0-0.1,0.3-0.1,0.5-0.2l0,0c0,0,0,0,0.1,0
			c0.2,0,0.4-0.1,0.5-0.1l0.2,0l0,0c0.8-0.1,2.2-0.3,3.5-0.1l0,0c0,0,0.1,0,0.1,0L27,3.7c-0.1,0-0.2,0.1-0.3,0.2l-0.4-1.1
			c-0.9-0.2-3.1,0-3.5,0.1C23.2,3,23.5,3,23.6,3.1c0.6-0.1,2.1-0.2,2.1,0l0.4,1.1c-0.1,0.1-0.2,0.2-0.4,0.3l-0.5-0.9c0,0,0,0,0,0
			l0,0l0,0c-0.1-0.1-0.1-0.1-0.3-0.1c-1.6-0.1-2.9,0.3-3.3,0.4c0.2,0.1,0.7,0.3,0.9,0.3c0.1,0,2-0.4,2.2,0c0,0,0,0,0,0l0.5,0.9
			c-0.1,0.2-0.2,0.3-0.3,0.5l-0.8-0.8l0,0c0,0-0.1,0-0.1,0c-1.6,0-3.2,0.4-3.5,0.7c0.2,0.1,0.7,0.4,1,0.4c0.1-0.1,1.9-0.6,2.2-0.2
			l0.8,0.9c-0.1,0.2-0.2,0.4-0.3,0.7l-0.7-0.5c0-0.1-0.1-0.1-0.2-0.1l0,0l0,0c0,0-0.1,0-0.1,0c-1.6,0-3.1,0.6-3.4,0.9
			c0.2,0.1,0.8,0.4,1,0.5c0.1-0.1,1.8-0.7,2.3-0.4L24,8.1c-0.1,0.3-0.1,0.5-0.2,0.8l-1-0.4c-0.6-0.2-3.2,0.8-3.5,1
			c0.2,0.1,0.9,0.5,1.1,0.6c0.1-0.1,1.7-0.7,2.3-0.5l1,0.4c0,0.3-0.1,0.6-0.1,0.9l-1.2-0.1c0,0,0,0,0,0l0,0v0
			c-0.8-0.1-3,0.9-3.3,1.1c0.4,0.2,0.8,0.5,1.2,0.7c0.1-0.1,1-0.6,2.2-0.6l1.2,0.1c0,0.3,0,0.6,0,0.8l-1.2,0.3c-1,0-2.5,0.6-3.2,1.2
			c0.4,0.1,0.9,0.4,1.3,0.6c0.1-0.1,0.8-0.5,1.9-0.6l0,0l0,0h0c0,0,0,0,0,0l1.2-0.3c0,0.2,0.1,0.5,0.1,0.7l-1.2,0.7
			c-1,0.2-2.2,0.7-2.9,1.1c0.4,0.1,0.9,0.3,1.3,0.5c0.1-0.1,0.7-0.5,1.9-0.6c0,0,0.1,0,0.1-0.1l1.1-0.7c0.1,0.2,0.1,0.4,0.2,0.6
			l-1.1,1c-1,0.3-2,0.5-2.7,1c0.4,0.1,0.8,0.3,1.3,0.4c0.1-0.1,0.8-0.3,1.8-0.5l1-1.2c0.1,0.2,0.2,0.4,0.3,0.6L24,19.1
			c-0.8,0.2-1.5,0.5-2.3,0.8c0.3,0.1,0.6,0.2,1.1,0.3c0.1-0.1,0.8-0.2,1.6-0.4l0.9-1.2c0.1,0.1,0.2,0.3,0.3,0.4l-0.7,1.4
			c-0.7,0.2-1.1,0.3-1.9,0.4c0.3,0.1,0.5,0.1,0.9,0.2c0.2,0,1-0.1,1.6-0.3c0,0,0,0,0-0.1l0.6-1.2c0.1,0.1,0.2,0.2,0.3,0.3l-0.4,1.1
			c-0.2,0.1-0.6,0.3-1.3,0.3c0.3,0.1,0.6,0.1,0.9,0.1c0.2,0,0.8-0.1,1-0.3l0.3-0.9C27,20,27.1,20,27.2,20L27,20.8z M28,20.6
			C28,20.6,28,20.7,28,20.6c-0.1,0.1-0.1,0.1-0.2,0.1l0,0c-0.1,0.1-0.3,0.2-0.5,0.2c0.1-0.1,0.2-0.1,0.3-0.2l0.1-0.7
			c0,0,0.1,0,0.1,0c0.1,0,0.2,0,0.2,0L28,20.6z M28.5,20.3l0-0.3c0.1,0,0.2-0.1,0.3-0.1l0,0.1C28.7,20.1,28.6,20.2,28.5,20.3z
			 M29.2,19.7L29.2,19.7c0-0.1,0.1-0.1,0.1-0.1C29.3,19.6,29.2,19.7,29.2,19.7z"/>
		<path class="st2" d="M28.5,13.7c0,0,0.1,0.1,0.1,0.1c0.1,0.1,0.6,0.5,1.3,1.1l-0.7,1c-0.1,0.1,0,0.2,0.1,0.3c0,0,0.6,0.5,0.8,0.7
			l-0.2,1.2c0,0.1,0.1,0.2,0.1,0.3c1.2,1.3,3.5,2.9,6.4,2.9c0.4,0,0.9,0,1.3-0.1c0,0,0.1,0,0.1,0c0,0,0,0,0,0c0.6,0,3.3-0.3,4-0.5
			c0.1,0,0.2-0.1,0.2-0.2c0,0,1.3,0,1.4,0c0.3,0,0.4-0.2,0.4-0.4l0-0.7l1-0.1c0.2,0,0.3-0.2,0.3-0.5l-0.2-1.3l0.9,0c0,0,0,0,0,0
			c0.1,0,0.3-0.2,0.2-0.7l-0.3-1.8c0,0,0,0,0,0l1-0.3c0.2-0.1,0.3-0.3,0-0.6L46,13c0-0.3,0-0.6,0-0.9c0,0,0.9-0.3,0.9-0.3
			c0.2-0.1,0.3-0.4,0.1-0.6c0,0,0,0,0,0l-1.1-1.1c0,0,0-0.1,0-0.1c0.3-0.3,0.8-0.8,0.8-0.8c0.1-0.1,0.1-0.3,0.1-0.4
			c0-0.1,0-0.1-0.1-0.2l-1.2-0.9l0.5-1c0.1-0.3,0-0.6-0.1-0.6l-1.2-0.6l0.2-0.9c0-0.2-0.1-0.4-0.2-0.5c0,0,0,0,0,0l-1.3-0.5l0-0.3
			c0-0.1-0.1-0.2-0.2-0.3c0,0-0.1,0-0.1,0l-1.5-0.1c0-0.1-0.1-0.1-0.1-0.1l0,0l0,0l0,0c-0.3-0.1-0.8-0.1-1.5,0
			c-0.8-0.2-2.5-0.3-2.7-0.4c-0.2,0-0.3,0.1-0.4,0.1c0,0,0,0,0,0.1c0,0,0,0,0,0c0,0,0,0,0,0l0,0c0,0,0,0,0,0l-0.1,0.5
			c-0.5-0.2-1.3-0.5-1.9-0.5c0,0,0,0,0,0c-0.1,0-0.3,0.1-0.3,0.2l-0.2,0.9l-1-0.4c-0.1,0-0.2,0-0.2,0c-0.1,0-0.1,0.1-0.1,0.2
			l-0.1,1.6l-1.6-0.3c-0.1,0-0.2,0-0.2,0c-0.1,0-0.1,0.1-0.1,0.2l0,1.7l-1.4,0.5c-0.1,0-0.2,0.1-0.2,0.3l0.5,2.5l-0.8,0.3
			c-0.3,0.1-0.2,0.4,0,0.5c0.1,0.1,0.3,0.3,0.6,0.6l0.1,1l-0.9,0.9C28.4,13.5,28.4,13.6,28.5,13.7z M38.1,3
			c-0.4,0.1-0.9,0.2-1.3,0.3l0.1-0.4C37.3,2.9,37.7,2.9,38.1,3z M41.8,7.9c1.3,0,2.3,1.8,2.3,4.1s-1,4.1-2.3,4.1s-2.3-1.8-2.3-4.1
			S40.5,7.9,41.8,7.9z M43.2,20l-1.1,0l0.2-0.8c0.2,0,0.4-0.1,0.6-0.2C43,19.3,43.1,19.7,43.2,20z M42,4.8l-0.5-1.5l1.1,0l-0.2,1.5
			C42.3,4.8,42.2,4.8,42,4.8C42,4.8,42,4.8,42,4.8z M43.2,4l1.1,0.4l-0.5,1c-0.2-0.1-0.3-0.3-0.5-0.4L43.2,4z M44.5,5.9l0.9,0.4
			l-0.6,0.5c-0.1-0.2-0.2-0.4-0.4-0.6L44.5,5.9z M45.6,8.7c-0.1-0.2-0.1-0.3-0.2-0.5L46,8.6L45.6,8.7z M45.2,16.4l0.4,0.4l-0.6,0
			C45.1,16.7,45.1,16.6,45.2,16.4z M43.8,18.8v-0.4c0.2-0.1,0.3-0.3,0.4-0.5l0.4,0.7L43.8,18.8z M39.8,20.5c0.1,0,0.3-0.1,0.4-0.3
			l0.7-1.3c0.2,0.1,0.4,0.2,0.5,0.2l-0.1,1.2C40.9,20.4,40.4,20.4,39.8,20.5z M29.1,13.4l0.7-0.7c0,0,0.1-0.1,0.1-0.2l0-0.5
			c0.9,0.9,1.9,2.1,2.1,2.4c0.1,0.1,0.2,0.1,0.3,0.1c0.1,0,0.1,0,0.2-0.1c0.2-0.1,0.2-0.3,0.1-0.4c-0.1-0.1-2.3-2.6-3.2-3.4l0.5-0.2
			c0.1,0,0.2-0.1,0.2-0.3l-0.3-1.8c0.6,0.6,1.5,1.7,2,2.7c0.3,0.6,0.8,0.3,0.6-0.1c-0.1-0.5-1.8-2.7-2.5-3.3l1-0.3
			c0.1,0,0.2-0.1,0.2-0.2l0-1.1c0.5,0.6,1.1,1.6,1.4,2c0.3,0.6,0.8,0.2,0.6-0.2c-0.1-0.3-0.8-1.5-1.4-2.2l1,0.2c0.1,0,0.2,0,0.2,0
			C33,5.6,33,5.5,33,5.4l0-1.1c0.2,0.2,0.5,0.6,0.7,0.9c0.4,0.6,0.7,0,0.6-0.2c-0.1-0.2-0.3-0.5-0.6-0.8L34,4.3c0.1,0,0.2,0,0.2,0
			c0.1,0,0.1-0.1,0.1-0.2l0.2-0.9c0.4,0,0.9,0.2,1.3,0.4c-0.2,0.1-0.4,0.2-0.6,0.3c-0.4,0.2-0.1,0.7,0.4,0.4
			c1.1-0.7,4.1-1.3,4.9-1.4L41,5c-0.1,0.1-0.3,0.1-0.4,0.2l-1.3-1.5c-0.9-0.3-5.1,1.9-5.8,2.4c-0.3,0.3,0,0.7,0.5,0.4
			c0.9-0.7,3.9-2,4.7-2.2l1,1.8c-0.2,0.2-0.4,0.5-0.5,0.8l-1.5-1c-0.9-0.2-4.4,2.3-5.2,3.2C32.2,9.4,32.6,10,33,9.5
			c0.9-1,3.7-2.8,4.4-3L38.7,8c-0.1,0.3-0.2,0.7-0.3,1l-1.7-0.1l0,0c-1,0-3.8,2.2-4.5,3.5c-0.2,0.3,0.3,0.8,0.5,0.4
			c0.9-1.3,3-3,3.8-3.3l1.6,1.1c0,0.4-0.1,0.7-0.1,1.1l-1.6,0.6c-0.9,0.2-3.3,2.1-3.7,3.5c-0.1,0.4,0.5,0.6,0.6,0.1
			c0.5-1.2,2.3-2.6,3.2-2.9l1.6,0.1c0,0.4,0.1,0.8,0.2,1.2l-1.3,1.1l0,0c-0.8,0.5-2.2,1.3-3,2.9c-0.2,0.3,0.4,0.7,0.6,0.2
			c0.8-1.3,1.9-2.1,2.5-2.5l1.5-0.5c0.1,0.3,0.2,0.5,0.3,0.7c0,0-1,1.8-1,1.8c-1,0.6-1.3,0.9-1.7,1.3c-0.1,0.1-0.3,0.3-0.4,0.4
			c-0.1,0.1-0.1,0.3,0,0.4c0.1,0.1,0.2,0.1,0.2,0.1c0.1,0,0.2,0,0.3-0.1c0.2-0.2,0.3-0.3,0.5-0.5c0.4-0.4,1.6-1.2,1.6-1.2l1.1-1.2
			c0.2,0.2,0.3,0.4,0.5,0.6l-0.4,1.8c-4.9,2.3-8.7-1.5-9.1-2c0,0,0.1-0.6,0.1-0.6c0.4,0.4,0.9,0.7,1.3,1.1c0.7,0.6,1.4,1.2,1.8,1.5
			c0.1,0.1,0.2,0.1,0.2,0.1c0.1,0,0.2,0,0.3-0.1c0.1-0.1,0.1-0.3,0-0.4c-0.4-0.3-1.1-0.9-1.8-1.5c-0.8-0.7-1.8-1.5-2.5-2.1l0.4-0.6
			c1.2,1.1,2.5,2.4,2.7,2.5c0.1,0.1,0.2,0.1,0.3,0.1c0.1,0,0.1,0,0.2-0.1c0.2-0.1,0.2-0.3,0.1-0.4C33.3,17.1,30,14.1,29.1,13.4z"/>
	</g>
</g>
<g id="TC4">
	<g id="step3_x5F_tc4" class="st0">
		<path class="st3" d="M25.2,11.4h-2.1c-0.3,0-0.5-0.2-0.5-0.5V10c0-0.3,0.2-0.5,0.5-0.5h1.8c0-0.1,0-0.2,0-0.3
			c0-0.5,0.1-1.1,0.2-1.6c-0.1,0-0.1,0-0.2,0H14.6c-0.5,0-0.8-0.4-0.6-0.9l1.1-2.7c0.2-0.5,0.8-0.9,1.3-0.9h6.7
			c0.5,0,1.1,0.4,1.3,0.9l1,2.5c0.2-0.5,0.4-1,0.6-1.4L25.5,4c-0.3-0.8-1.3-1.4-2.1-1.4h-7.3c-0.8,0-1.8,0.6-2.1,1.4l-0.7,1.7
			l-0.5-0.1c-0.1,0-0.2,0-0.3,0c-0.5,0-0.9,0.4-0.9,0.9v0c0,0.6,0.4,1,0.9,1.1C12.2,8.3,12,9.5,12,10.3v3.5c0,0.6,0.5,1.2,1.2,1.2
			h0.7c0.6,0,1.2-0.5,1.2-1.2v-0.7h3.6v1.1H19l-3.6,3.1h-0.5v-0.4H14v1.7h0.9v-0.4h0.5l3.3,2.4h-1.1v0.9h2.3l0,0l0,0h2.2v-0.9h-1
			l3.2-2.4h0.3v0.4h0.9v-1.7h-0.9v0.4h-0.3l-3.8-3.1H21v-1.1h3.5v0.7c0,0.6,0.5,1.2,1.2,1.2h0.7c0.2,0,0.3,0,0.5-0.1
			c-0.4-0.7-0.8-1.5-1.2-2.3C25.5,12.2,25.3,11.8,25.2,11.4z M16.8,10.9c0,0.3-0.2,0.5-0.5,0.5h-2.2c-0.3,0-0.5-0.2-0.5-0.5V10
			c0-0.3,0.2-0.5,0.5-0.5h2.2c0.3,0,0.5,0.2,0.5,0.5V10.9z M19.9,20.4l-3-2.2h5.8L19.9,20.4z M22.8,17.3h-6l2.9-2.5L22.8,17.3z"/>
		<path class="st3" d="M35.2,8.2l-0.3-0.8l1-1.2c-0.5-0.1-1.1,0.1-1.4,0.5C34,7.1,34,7.8,34.2,8.3c0,0,0,0,0,0l-1,1.1l0.9,0.9
			l1.1-1.2c0,0,0,0,0,0c0.6,0.2,1.2,0,1.6-0.5c0.4-0.4,0.5-1,0.3-1.5l-1,1.2L35.2,8.2z"/>
		<path class="st3" d="M30.8,12.4c-0.2,0.2-0.2,0.6,0.1,0.8l0.1,0.1c0.2,0.2,0.6,0.2,0.8-0.1l1.3-1.6l-0.9-0.9L30.8,12.4z"/>
		<path class="st3" d="M34,10.5l-0.9-0.9L32,8.4c0,0,0,0,0,0c0,0,0-0.1,0-0.1c0,0,0-0.1,0-0.1c0.2-0.5,0-1.1-0.3-1.5
			c-0.4-0.4-0.9-0.6-1.5-0.5l1.1,1.2L31,8.2l-0.9,0.2l-1.1-1.2c-0.2,0.5,0,1.1,0.3,1.5c0.4,0.4,1,0.6,1.5,0.5c0,0,0.1,0,0.1,0
			c0,0,0.1,0,0.1,0c0,0,0,0,0,0l1.2,1.3l0.9,0.9l1.5,1.6c0.1,0.1,0.3,0.2,0.4,0.2c0.1,0,0.3-0.1,0.4-0.2l0.1-0.1
			c0.2-0.2,0.3-0.6,0-0.8L34,10.5z"/>
		<path class="st3" d="M33.2,2.5c-3.9,0-7,3.1-7,7c0,1,0.2,2,0.6,2.9c1.8,3.8,5.1,7.9,6.1,9c0.1,0.1,0.2,0.1,0.3,0.1
			c0.1,0,0.2,0,0.3-0.1c1-1.1,4.3-5.2,6.1-9c0.4-0.9,0.6-1.9,0.6-2.9C40.2,5.6,37,2.5,33.2,2.5z M33.2,14.9c-3,0-5.5-2.5-5.5-5.5
			c0-3,2.5-5.5,5.5-5.5s5.5,2.5,5.5,5.5C38.6,12.4,36.2,14.9,33.2,14.9z"/>
	</g>
	<g id="step2_x5F_tc4" class="st0">
		<g class="st1">
			<g>
				<path class="st2" d="M23.7,15.5C23.7,15.4,23.7,15.4,23.7,15.5l0-6.1c0-0.9-0.7-1.6-1.6-1.6c0,0-14-0.4-15.1,0.1
					c-0.9,0.4-2.5,1.7-3.8,2.8c-0.4,0.3-0.8,0.7-1.4,1.1C1.5,12,1.1,12.4,1.1,13v1.9c0,0.3,0,0.5-0.1,0.6c-0.2,0.1-0.3,0.3-0.3,0.6
					l0.3,1.8c0,0.3,0.3,0.4,0.5,0.4h0.8c0.1,0,0.1,0,0.1,0.1c0.3,1,1.2,1.7,2.3,1.7c1.1,0,2-0.7,2.3-1.7c0-0.1,0.1-0.1,0.1-0.1h9.6
					c0.1,0,0.1,0,0.1,0.1c0.3,1,1.2,1.7,2.3,1.7c1.1,0,2-0.7,2.3-1.7c0-0.1,0.1-0.1,0.1-0.1h2.2c0.1,0,0.1-0.1,0.1-0.1V16
					C23.8,15.7,23.7,15.5,23.7,15.5z M4.7,19c-1,0-1.7-1.1-1.1-2.1c0.1-0.1,0.2-0.2,0.3-0.3C5,16,6,16.8,6,17.7
					C6,18.4,5.5,19,4.7,19L4.7,19z M10.3,11.5c0,0.5-0.4,0.8-0.8,0.8h-5c-0.2,0-0.3-0.3-0.2-0.4l2.6-2.2c0.4-0.3,0.8-0.5,1.3-0.5
					h1.6c0.3,0,0.5,0.2,0.5,0.5V11.5z M15.6,15.2C15.6,15.3,15.6,15.3,15.6,15.2c-0.3,0.2-0.7,0.1-0.9-0.1c-0.2-0.2-0.2-0.7,0-0.9
					L17,12c0,0,0-0.1,0-0.1c-0.2-0.6-0.1-1.3,0.4-1.7c0.3-0.3,0.8-0.5,1.3-0.5c0.1,0,0.2,0.1,0.2,0.2c0,0.1,0,0.2-0.1,0.3l-0.7,0.7
					c0,0,0,0.1,0,0.1c0,0,0,0.1,0,0.1l0.8,0.8c0,0,0.1,0,0.1,0c0,0,0.1,0,0.1,0l0.7-0.7C19.8,11,19.9,11,20,11
					c0.1,0,0.2,0.1,0.2,0.2c0,0.5-0.2,0.9-0.5,1.3C19.4,12.9,19,13,18.6,13c-0.2,0-0.4,0-0.6-0.1c0,0-0.1,0-0.1,0L15.6,15.2z
					 M19.1,19c-1,0-1.7-1.1-1.1-2.1c0.1-0.1,0.2-0.2,0.3-0.3c1-0.6,2.1,0.1,2.1,1.1C20.4,18.4,19.8,19,19.1,19L19.1,19z M19.1,19"/>
			</g>
		</g>
		<g class="st1">
			<path class="st2" d="M23.3,2.7c-0.2,0-0.3-0.1-0.4-0.3l-0.3-0.9c-0.1-0.2,0-0.5,0.2-0.6c0.2-0.1,0.5,0,0.6,0.2l0.3,0.9
				c0.1,0.2,0,0.5-0.2,0.6C23.4,2.7,23.4,2.7,23.3,2.7z"/>
			<path class="st2" d="M30.1,20.3c-0.2,0-0.3-0.1-0.4-0.3L29,18.2c-0.1-0.2,0-0.5,0.2-0.6c0.2-0.1,0.5,0,0.6,0.2l0.7,1.8
				c0.1,0.2,0,0.5-0.2,0.6C30.2,20.2,30.2,20.3,30.1,20.3z M28.8,16.8c-0.2,0-0.3-0.1-0.4-0.3l-0.7-1.8c-0.1-0.2,0-0.5,0.2-0.6
				c0.2-0.1,0.5,0,0.6,0.2l0.7,1.8c0.1,0.2,0,0.5-0.2,0.6C28.9,16.7,28.8,16.8,28.8,16.8z M27.4,13.2c-0.2,0-0.3-0.1-0.4-0.3
				l-0.7-1.8c-0.1-0.2,0-0.5,0.2-0.6c0.2-0.1,0.5,0,0.6,0.2l0.7,1.8c0.1,0.2,0,0.5-0.2,0.6C27.5,13.2,27.5,13.2,27.4,13.2z M26,9.7
				c-0.2,0-0.3-0.1-0.4-0.3L25,7.7c-0.1-0.2,0-0.5,0.2-0.6c0.2-0.1,0.5,0,0.6,0.2l0.7,1.8c0.1,0.2,0,0.5-0.2,0.6
				C26.1,9.7,26.1,9.7,26,9.7z M24.7,6.2c-0.2,0-0.3-0.1-0.4-0.3l-0.7-1.8c-0.1-0.2,0-0.5,0.2-0.6c0.2-0.1,0.5,0,0.6,0.2l0.7,1.8
				c0.1,0.2,0,0.5-0.2,0.6C24.8,6.2,24.7,6.2,24.7,6.2z"/>
			<path class="st2" d="M31.1,22.9c-0.2,0-0.3-0.1-0.4-0.3l-0.3-0.9c-0.1-0.2,0-0.5,0.2-0.6c0.2-0.1,0.5,0,0.6,0.2l0.3,0.9
				c0.1,0.2,0,0.5-0.2,0.6C31.2,22.9,31.2,22.9,31.1,22.9z"/>
		</g>
		<g class="st1">
			<path class="st2" d="M47.2,12.3c-0.1,0-0.2,0-0.2,0l-0.4,0.1L46,11.1c-0.3-0.6-1-1.1-1.7-1.1h-5.7c-0.7,0-1.4,0.5-1.7,1.1
				l-0.6,1.3L36,12.4c-0.1,0-0.2,0-0.2,0c-0.4,0-0.7,0.3-0.7,0.7v0c0,0.4,0.3,0.8,0.7,0.9c-0.2,0.6-0.4,1.5-0.4,2.1v2.8
				c0,0.5,0.4,0.9,0.9,0.9h0.5c0.5,0,0.9-0.4,0.9-0.9v-0.6h7.5v0.6c0,0.5,0.4,0.9,0.9,0.9h0.5c0.5,0,0.9-0.4,0.9-0.9v-2.8
				c0-0.6-0.2-1.6-0.4-2.1c0.4-0.1,0.7-0.4,0.7-0.9v0C47.9,12.6,47.6,12.3,47.2,12.3L47.2,12.3z M37,13.4l0.9-2.1
				c0.2-0.4,0.6-0.7,1-0.7h5.2c0.4,0,0.9,0.3,1,0.7l0.9,2.1c0.2,0.4-0.1,0.7-0.5,0.7h-8.1C37,14.1,36.8,13.8,37,13.4L37,13.4z
				 M39.2,16.6c0,0.2-0.2,0.4-0.4,0.4h-1.7c-0.2,0-0.4-0.2-0.4-0.4v-0.7c0-0.2,0.2-0.4,0.4-0.4h1.7c0.2,0,0.4,0.2,0.4,0.4V16.6z
				 M46.3,16.6c0,0.2-0.2,0.4-0.4,0.4h-1.7c-0.2,0-0.4-0.2-0.4-0.4v-0.7c0-0.2,0.2-0.4,0.4-0.4h1.7c0.2,0,0.4,0.2,0.4,0.4V16.6z
				 M46.3,16.6"/>
			<path class="st2" d="M49.3,3.1H33.7c-0.9,0-1.7,0.8-1.7,1.7v14.3c0,0.5,0.4,0.9,0.9,0.9c0.5,0,0.9-0.4,0.9-0.9v-10h15.2v10
				c0,0.5,0.4,0.9,0.9,0.9c0.5,0,0.9-0.4,0.9-0.9V4.8C51,3.9,50.2,3.1,49.3,3.1L49.3,3.1z M33.9,7h15.2v0.3H33.9V7z M33.9,6.2V5.9
				h15.2v0.3H33.9z M33.9,8.4V8h15.2v0.3H33.9z M33.9,8.4"/>
		</g>
	</g>
	<path id="step1_x5F_tc4" class="st2" d="M47.2,11.7c0-0.1,0-0.2,0-0.3c0,0,0,0,0,0c-0.1-2.1-0.7-4.1-1.6-5.6c0,0,0,0,0,0
		c-0.1-0.1-0.1-0.2-0.2-0.3c0,0,0-0.1-0.1-0.1c0-0.1-0.1-0.1-0.1-0.2c0-0.1-0.1-0.1-0.1-0.2C45.1,5,45,5,45,4.9
		c-0.1-0.1-0.1-0.1-0.2-0.2c0,0,0,0,0,0c-1-1.2-2.4-2-3.8-2.1c0,0,0,0-0.1,0c0,0,0,0-0.1,0c-0.1,0-0.2,0-0.2,0h-4.4
		c-1.5,0-2.8,0.7-3.9,1.8c-1-1-2.1-1.6-3.4-1.7c0,0,0,0-0.1,0c0,0,0,0-0.1,0c-0.1,0-0.2,0-0.2,0h-4.4c-1.4,0-2.8,0.7-3.8,1.8
		c-1-1.1-2.2-1.8-3.6-1.9c0,0,0,0-0.1,0c0,0,0,0-0.1,0c-0.1,0-0.2,0-0.2,0H12c-1.6,0-3,0.8-4.2,2.2c0,0-0.1,0.1-0.1,0.1c0,0,0,0,0,0
		c0,0-0.1,0.1-0.1,0.1c-1.4,1.7-2.2,4.3-2.2,7.1c0,0.4,0,0.8,0.1,1.2c0,0,0,0,0,0c0.2,2.4,1,4.5,2.3,6c0,0,0,0,0,0
		c0.6,0.7,1.2,1.2,1.9,1.6c0,0,0,0,0,0c0.7,0.4,1.5,0.6,2.4,0.6h4.4c0.1,0,0.2,0,0.3,0c0,0,0.1,0,0.1,0c1.3-0.1,2.5-0.7,3.5-1.8
		c0.5,0.5,1,0.9,1.6,1.3c0,0,0,0,0,0c0.7,0.4,1.5,0.6,2.4,0.6h4.4c0.1,0,0.2,0,0.3,0c0,0,0.1,0,0.1,0c1.3-0.1,2.5-0.8,3.6-1.8
		c1.1,1.1,2.4,1.7,3.8,1.7h4.4c0.1,0,0.2,0,0.3,0c0,0,0.1,0,0.1,0c3-0.3,5.5-3.3,6.1-7.6c0,0,0-0.1,0-0.1c0.1-0.6,0.1-1.1,0.1-1.7
		v-0.1C47.2,11.8,47.2,11.7,47.2,11.7z M23.5,3.3c0.2,0,0.4,0,0.6,0h0.7H27c-0.6,0.4-1.2,0.9-1.6,1.5l-1.1-0.6c-0.1,0-0.2,0-0.3,0
		l-0.8,0.5l-0.8-0.5c-0.1-0.1-0.2-0.1-0.3-0.1l-1.1,0.3C21.8,3.9,22.6,3.5,23.5,3.3z M25.4,11.6C25.4,11.6,25.4,11.6,25.4,11.6
		L25.4,11.6L25.4,11.6z M21.9,16.2c-0.1-0.1-0.3-0.1-0.4,0L20.7,17L20,16.2c-0.1-0.1-0.3-0.1-0.4,0l-0.5,0.5c0,0,0-0.1,0-0.1l0,0
		c-0.2-0.4-0.3-0.9-0.5-1.4c0.1,0,0.1-0.1,0.2-0.1l0.4-0.6l0.7,0.7c0.1,0.1,0.3,0.1,0.4,0l0.7-0.7l0.8,0.8c0.1,0.1,0.3,0.1,0.4,0
		l0.8-0.8l0.5,0.5c0.1,0.6,0.3,1.1,0.4,1.6l-0.6-0.3c-0.2-0.1-0.3,0-0.4,0.1l-0.4,0.6L21.9,16.2z M19,12.7c0.1,0.1,0.3,0,0.4-0.1
		l0.7-0.7l0.8,0.7c0.1,0.1,0.3,0.1,0.4,0l0.8-0.8l1.2,0.7c0,0.5,0,0.9,0.1,1.3l-0.2-0.2c-0.1-0.1-0.3-0.1-0.4,0L22,14.5l-0.7-0.7
		c-0.1-0.1-0.3-0.1-0.4,0l-0.7,0.7l-0.7-0.7c-0.1-0.1-0.2-0.1-0.3-0.1s-0.2,0.1-0.3,0.1l-0.4,0.7c-0.1-0.7-0.2-1.4-0.2-2.2L19,12.7z
		 M18.2,11.5c0-0.5,0.1-0.9,0.1-1.4c0,0,0.1,0,0.1-0.1l0.7-0.7l0.7,0.7c0.1,0.1,0.3,0.1,0.4,0L21,9.4l0.7,0.7c0.1,0.1,0.3,0.1,0.4,0
		l0.7-0.7l0.4,0.4c0,0,0.1,0,0.1,0.1c-0.1,0.7-0.2,1.3-0.2,2l-1.1-0.7c-0.1-0.1-0.3,0-0.4,0.1L21,12l-0.7-0.7
		c-0.1-0.1-0.3-0.1-0.4,0L19.1,12L18.2,11.5z M23.5,9.1l-0.4-0.4c-0.1-0.1-0.3-0.1-0.4,0L22,9.4l-0.7-0.7c-0.1-0.1-0.3-0.1-0.4,0
		l-0.7,0.7l-0.7-0.7c-0.1-0.1-0.1-0.1-0.2-0.1c-0.1,0-0.2,0-0.2,0.1l-0.4,0.4c0.1-0.6,0.3-1.2,0.6-1.7l0,0c0-0.1,0.1-0.2,0.1-0.2
		l0.7,0.5c0.1,0.1,0.3,0.1,0.3,0L21,7.1l0.8,0.5c0.1,0.1,0.3,0.1,0.3,0l0.8-0.5l1,0.5C23.8,8.1,23.6,8.6,23.5,9.1z M23,6.5
		c-0.1,0-0.2,0-0.3,0L21.9,7l-0.8-0.5c-0.1-0.1-0.3-0.1-0.3,0L20.1,7l-0.6-0.4c0.2-0.4,0.5-0.8,0.7-1.1L21,5.2v0l1.2-0.4L23,5.4
		c0.1,0.1,0.3,0.1,0.3,0l0.8-0.5L25,5.3c-0.3,0.5-0.6,1.1-0.9,1.7L23,6.5z M10.1,20.3C10.1,20.3,10.1,20.3,10.1,20.3
		c-0.2-0.1-0.5-0.3-0.7-0.4c-0.1-0.1-0.3-0.2-0.4-0.3l0,0c-0.2-0.1-0.3-0.3-0.4-0.4l0,0c-0.3-0.4-0.6-0.8-0.9-1.2
		c-0.3-0.5-0.6-1-0.7-1.4C6.2,14.9,5.5,12.1,6.3,9c0,0,0,0,0,0l0,0c0.1-0.5,0.3-1,0.5-1.5c0.9-2.3,2-3.3,3.1-3.8
		c0.1-0.1,0.3-0.1,0.4-0.2C9,4.9,7.6,7.3,7.2,10.2c-0.4,2.3-0.4,6.6,3.1,10.1C10.2,20.3,10.1,20.3,10.1,20.3z M11.7,20.7
		c-0.1,0-0.3,0-0.4,0c-4-3.6-4-8-3.6-10.4C8.2,6.9,10,4,11.5,3.2c0.2,0,0.3,0,0.5,0h0.6c0.1,0,0.3,0,0.4,0c-1.4,1.2-3,3.9-3.5,7.1
		c-0.4,2.4-0.4,6.9,3.5,10.6C12.6,20.8,12.2,20.8,11.7,20.7z M14.8,20.7c0,0-0.4,0.1-1,0.1c-4.2-3.6-4.2-8.1-3.8-10.5
		c0.5-3.5,2.4-6.5,3.9-7.2c0.4,0,0.7,0,0.8,0h0.2c0,0-0.1,0.1-0.1,0.1c-0.4,0.3-1.4,1.2-2.4,3.2c-1,2-1.4,4.6-1.1,7.5
		c0.1,0.5,0.1,1,0.3,1.5c0.1,0.3,0.2,0.6,0.2,0.8l0,0c0.4,1.3,1.2,2.7,2.9,4.2C14.7,20.6,14.7,20.7,14.8,20.7L14.8,20.7z M13.2,11.5
		C13.2,11.5,13.2,11.5,13.2,11.5L13.2,11.5L13.2,11.5z M17,18.2c-1.7,0-3.1-2.9-3.1-6.3c0-1.1,0.2-2.2,0.4-3.1l0.1-0.2l0.2-0.6
		C15.1,6.6,16,5.7,17,5.7c0.2,0,0.3,0,0.5,0.1l0.1,0c0,0,0,0,0,0l0.1,0C18,6,18.4,6.3,18.7,6.8c-0.7,1.5-1.2,3.3-1.2,5.3
		c0,0.4,0,0.8,0.1,1.2c0,0,0,0,0,0c0.1,1.4,0.5,2.8,1,3.9C18.2,17.9,17.6,18.2,17,18.2z M20.6,19.1L20.6,19.1
		c-0.1-0.1-0.1-0.1-0.2-0.2c0,0,0,0,0,0c-0.1-0.1-0.1-0.1-0.2-0.2c0,0,0,0,0,0c-0.1-0.1-0.1-0.1-0.2-0.2c0,0,0,0,0,0
		c0-0.1-0.1-0.1-0.1-0.2c0,0,0,0,0-0.1c0-0.1-0.1-0.1-0.1-0.2c0,0,0-0.1-0.1-0.1c0-0.1-0.1-0.1-0.1-0.2c0,0-0.1-0.1-0.1-0.1
		c0,0,0-0.1-0.1-0.1c0-0.1-0.1-0.2-0.1-0.3l0.4-0.4l0.7,0.7c0.1,0.1,0.3,0.1,0.4,0l0.7-0.7l0.7,0.7c0.1,0.1,0.1,0.1,0.2,0.1
		c0.1,0,0.2-0.1,0.3-0.2l0.5-0.7l0.9,0.5c0.2,0.6,0.5,1.1,0.8,1.5l-0.6,0.4l-0.8-0.5c-0.1-0.1-0.3-0.1-0.3,0l-0.8,0.5l-0.8-0.5
		c-0.1-0.1-0.3-0.1-0.3,0l-0.8,0.5C20.7,19.2,20.6,19.2,20.6,19.1z M24.1,20.9c-1.1,0-2.1-0.4-3-1.2l0.5-0.3l0.8,0.5
		c0.1,0.1,0.3,0.1,0.3,0l0.8-0.5l0.7,0.5c0.1,0.1,0.3,0.1,0.3,0l0.8-0.5c0.5,0.6,1,1.1,1.6,1.5H24.1z M29.2,18.3
		c-1.7,0-3.1-2.9-3.1-6.3c0-1.1,0.2-2.2,0.4-3.1l0.1-0.2l0.2-0.6c0.6-1.5,1.5-2.4,2.4-2.4c0.2,0,0.3,0,0.5,0.1l0.1,0c0,0,0,0,0,0
		l0.1,0c0.3,0.1,0.6,0.4,0.9,0.7c-0.7,1.5-1.1,3.3-1.1,5.3c0,2,0.4,3.9,1.2,5.4C30.3,18,29.8,18.3,29.2,18.3z M39,20.7
		c0,0-1.5,0.2-3,0c-0.6,0-1.1-0.2-1.7-0.4c0,0,0,0,0,0c-0.2-0.1-0.5-0.3-0.7-0.4c-0.1-0.1-0.3-0.2-0.4-0.3l0,0
		c-0.2-0.1-0.3-0.3-0.4-0.4l0,0c-0.3-0.4-0.6-0.8-0.9-1.2c-0.3-0.5-0.6-1-0.7-1.4c-0.6-1.6-1.3-4.5-0.5-7.5c0,0,0,0,0,0l0,0
		c0.1-0.5,0.3-1,0.5-1.5c0.9-2.3,2-3.3,3.1-3.8c0.6-0.4,1.3-0.6,2.1-0.6h0.6c0.9,0,1.9-0.1,2.1,0h0.2c0,0-0.1,0.1-0.1,0.1
		c-0.4,0.3-1.4,1.2-2.4,3.2c-1,2-1.4,4.6-1.1,7.5c0.1,0.5,0.1,1,0.3,1.5c0.1,0.3,0.2,0.6,0.2,0.8l0,0c0.4,1.3,1.2,2.7,2.9,4.2
		C38.9,20.6,39,20.7,39,20.7L39,20.7z M37.5,11.5C37.5,11.5,37.5,11.5,37.5,11.5L37.5,11.5L37.5,11.5z M43.6,17.4L43.6,17.4
		C43.6,17.4,43.6,17.4,43.6,17.4L43.6,17.4z M41.2,18.2c-1.7,0-3.1-2.9-3.1-6.3c0-1.1,0.2-2.2,0.4-3.1l0.1-0.2l0.2-0.6
		c0.6-1.5,1.5-2.4,2.4-2.4c0.2,0,0.3,0,0.5,0.1l0.1,0c0,0,0,0,0,0l0.1,0c1.4,0.6,2.5,3.2,2.5,6.1C44.4,15.3,42.9,18.2,41.2,18.2z
		 M44.9,10.1C44.9,10.1,44.9,10.1,44.9,10.1L44.9,10.1L44.9,10.1z"/>
</g>
<g id="Calque_6" class="st0">
</g>
</svg>
