<svg id="TC4" xmlns="http://www.w3.org/2000/svg" viewBox="0 0 52 24"><defs><style>.cls-1{fill:gray;}</style></defs><title>step2_tc4</title><g id="step2_tc4"><path class="cls-1" d="M23.7,15.46a.14.14,0,0,1,0-.06l0-6.08a1.55,1.55,0,0,0-1.56-1.55s-14-.42-15.07.08a22.34,22.34,0,0,0-3.8,2.8,13.44,13.44,0,0,1-1.37,1.06A1.54,1.54,0,0,0,1.14,13v1.93c0,.29,0,.54-.13.59a.55.55,0,0,0-.26.57l.32,1.75a.55.55,0,0,0,.53.44h.75a.12.12,0,0,1,.12.08,2.36,2.36,0,0,0,4.55,0,.12.12,0,0,1,.11-.08h9.61a.12.12,0,0,1,.12.08,2.36,2.36,0,0,0,4.55,0,.12.12,0,0,1,.12-.08h2.18a.11.11,0,0,0,.11-.12V16A1.24,1.24,0,0,0,23.7,15.46ZM4.74,19A1.31,1.31,0,0,1,3.68,17,.81.81,0,0,1,4,16.66,1.31,1.31,0,0,1,6,17.72,1.29,1.29,0,0,1,4.74,19Zm5.54-7.48a.85.85,0,0,1-.84.84h-5a.25.25,0,0,1-.16-.44L6.88,9.71a2,2,0,0,1,1.27-.47H9.79a.49.49,0,0,1,.49.5Zm5.31,3.71-.06,0a.66.66,0,0,1-.79-.1.63.63,0,0,1,0-.9L17,12.05a.14.14,0,0,0,0-.13,1.65,1.65,0,0,1,1.64-2.21.26.26,0,0,1,.24.17.28.28,0,0,1-.06.28l-.66.66a.12.12,0,0,0,0,.16l.78.78a.11.11,0,0,0,.08,0,.12.12,0,0,0,.09,0l.65-.65a.26.26,0,0,1,.29-.06.28.28,0,0,1,.17.23,1.69,1.69,0,0,1-.49,1.26,1.65,1.65,0,0,1-1.17.48,1.77,1.77,0,0,1-.56-.09.1.1,0,0,0-.12,0ZM19.13,19A1.3,1.3,0,0,1,18.08,17a.78.78,0,0,1,.28-.29,1.31,1.31,0,0,1,2.06,1.06A1.29,1.29,0,0,1,19.13,19Zm0,0"/><path class="cls-1" d="M23.33,2.73a.43.43,0,0,1-.4-.27l-.34-.89A.42.42,0,0,1,22.83,1a.43.43,0,0,1,.55.25l.34.88a.42.42,0,0,1-.24.55A.4.4,0,0,1,23.33,2.73Z"/><path class="cls-1" d="M30.12,20.26a.44.44,0,0,1-.4-.28L29,18.23a.43.43,0,0,1,.8-.31l.68,1.76a.43.43,0,0,1-.25.55A.4.4,0,0,1,30.12,20.26Zm-1.36-3.51a.41.41,0,0,1-.39-.27l-.68-1.75a.42.42,0,1,1,.79-.31l.68,1.75a.42.42,0,0,1-.24.55A.45.45,0,0,1,28.76,16.75Zm-1.36-3.5A.42.42,0,0,1,27,13l-.68-1.75a.42.42,0,0,1,.24-.55.42.42,0,0,1,.55.24l.68,1.76a.42.42,0,0,1-.24.55A.45.45,0,0,1,27.4,13.25ZM26.05,9.74a.41.41,0,0,1-.4-.27L25,7.71a.42.42,0,0,1,.24-.55.43.43,0,0,1,.55.25l.68,1.75a.42.42,0,0,1-.24.55ZM24.69,6.23a.43.43,0,0,1-.4-.27l-.68-1.75a.42.42,0,0,1,.24-.55.42.42,0,0,1,.55.24l.68,1.75a.43.43,0,0,1-.24.56Z"/><path class="cls-1" d="M31.14,22.89a.41.41,0,0,1-.39-.27l-.35-.88a.43.43,0,0,1,.25-.55.42.42,0,0,1,.55.24l.34.88a.43.43,0,0,1-.24.55Z"/><path class="cls-1" d="M47.23,12.32a.83.83,0,0,0-.22,0l-.43.12L46,11.13A2,2,0,0,0,44.36,10H38.63A1.94,1.94,0,0,0,37,11.13l-.55,1.34L36,12.35a.91.91,0,0,0-.23,0,.69.69,0,0,0-.7.74h0a.91.91,0,0,0,.74.9,6.77,6.77,0,0,0-.42,2.12v2.79a.91.91,0,0,0,.91.91h.52a.91.91,0,0,0,.91-.91V18.3h7.55v.58a.9.9,0,0,0,.9.91h.53a.9.9,0,0,0,.9-.91V16.09A6.76,6.76,0,0,0,47.19,14a.91.91,0,0,0,.75-.9h0a.7.7,0,0,0-.71-.74ZM37,13.4l.88-2.13a1.18,1.18,0,0,1,1-.68h5.25a1.18,1.18,0,0,1,1,.68L46,13.4a.45.45,0,0,1-.45.67h-8.1A.45.45,0,0,1,37,13.4Zm2.2,3.2a.36.36,0,0,1-.36.36H37.08a.36.36,0,0,1-.36-.36v-.74a.37.37,0,0,1,.36-.37h1.75a.37.37,0,0,1,.36.37Zm7.06,0a.36.36,0,0,1-.36.36H44.14a.36.36,0,0,1-.36-.36v-.74a.37.37,0,0,1,.36-.37h1.75a.37.37,0,0,1,.36.37Zm0,0"/><path class="cls-1" d="M49.29,3.11H33.71A1.7,1.7,0,0,0,32,4.81V19.14a.95.95,0,0,0,1.89,0v-10H49.1v10a.95.95,0,0,0,1.89,0V4.81a1.7,1.7,0,0,0-1.7-1.7ZM33.9,7H49.1v.33H33.9Zm0-.75V5.93H49.1V6.2Zm0,2.17V8H49.1v.33Zm0,0"/></g></svg>