<svg id="TC4" xmlns="http://www.w3.org/2000/svg" viewBox="0 0 52 24"><defs><style>.cls-1{fill:gray;}</style></defs><title>step3_tc4</title><g id="step3_tc4"><path class="cls-1" d="M25.21,11.38h-2.1a.47.47,0,0,1-.47-.46V10a.47.47,0,0,1,.47-.47h1.83c0-.08,0-.17,0-.26a8.12,8.12,0,0,1,.16-1.57l-.21,0H14.59A.57.57,0,0,1,14,6.85l1.11-2.71a1.49,1.49,0,0,1,1.27-.85h6.67a1.48,1.48,0,0,1,1.27.85l1,2.49A7.35,7.35,0,0,1,26,5.2L25.5,4a2.49,2.49,0,0,0-2.12-1.42H16.1A2.48,2.48,0,0,0,14,4l-.7,1.71-.54-.15a1,1,0,0,0-.29,0,.88.88,0,0,0-.89.94v0a1.15,1.15,0,0,0,.94,1.13A8.81,8.81,0,0,0,12,10.28v3.54A1.15,1.15,0,0,0,13.13,15h.66a1.14,1.14,0,0,0,1.15-1.15v-.74h3.65V14.2H19l-3.62,3.08H14.9V16.9H14v1.65h.89v-.38h.51l3.25,2.42H17.54v.89h4.52v-.89H21l3.16-2.42h.35v.38h.89V16.9h-.89v.38H24.2L20.39,14.2H21V13.08h3.52v.74A1.15,1.15,0,0,0,25.69,15h.66a1,1,0,0,0,.47-.1c-.43-.75-.82-1.51-1.17-2.26A7.84,7.84,0,0,1,25.21,11.38Zm-8.4-.46a.47.47,0,0,1-.46.46H14.13a.47.47,0,0,1-.46-.46V10a.47.47,0,0,1,.46-.47h2.22a.47.47,0,0,1,.46.47Zm3,9.45-3-2.2h5.83Zm2.94-3.09h-6l2.94-2.5Z"/><path class="cls-1" d="M35.2,8.18l-.32-.83,1-1.2a1.54,1.54,0,0,0-1.67,2.19h0l-1,1.13.86.94,1.07-1.25h0a1.55,1.55,0,0,0,1.62-.48,1.51,1.51,0,0,0,.3-1.5l-1,1.2Z"/><path class="cls-1" d="M30.77,12.35a.6.6,0,0,0,.07.84l.06.05a.6.6,0,0,0,.83-.06l1.34-1.56-.86-.93Z"/><path class="cls-1" d="M34,10.54l-.86-.94L32,8.37l0,0,0-.07,0-.08a1.54,1.54,0,0,0-.34-1.51,1.56,1.56,0,0,0-1.47-.47l1.08,1.17-.3.84-.86.23L29.08,7.29a1.55,1.55,0,0,0,.35,1.5,1.52,1.52,0,0,0,1.47.46l.09,0,.08,0h0l1.23,1.34.86.94,1.49,1.61a.56.56,0,0,0,.43.19.57.57,0,0,0,.4-.16l.06-.05a.59.59,0,0,0,0-.84Z"/><path class="cls-1" d="M33.16,2.46a7,7,0,0,0-7,7,6.82,6.82,0,0,0,.61,2.87,44.14,44.14,0,0,0,6.1,9,.4.4,0,0,0,.3.13.39.39,0,0,0,.29-.13,44.14,44.14,0,0,0,6.1-9,6.82,6.82,0,0,0,.61-2.87A7,7,0,0,0,33.16,2.46Zm0,12.42A5.48,5.48,0,1,1,38.64,9.4,5.48,5.48,0,0,1,33.16,14.88Z"/></g></svg>