<svg id="Calque_6" data-name="Calque 6" xmlns="http://www.w3.org/2000/svg" viewBox="0 0 32 24"><defs><style>.cls-1{fill:#fff;}</style></defs><title>play_youtube</title><path class="cls-1" d="M29.51,5.12A3.56,3.56,0,0,0,27,2.6C24.77,2,15.85,2,15.85,2S6.94,2,4.71,2.6A3.56,3.56,0,0,0,2.19,5.12,37.42,37.42,0,0,0,1.6,12a37.42,37.42,0,0,0,.59,6.86,3.58,3.58,0,0,0,2.52,2.52c2.23.6,11.14.6,11.14.6s8.92,0,11.14-.6a3.58,3.58,0,0,0,2.52-2.52A37.42,37.42,0,0,0,30.1,12,37.42,37.42,0,0,0,29.51,5.12ZM13,16.25V7.7L20.41,12Z"/></svg>